ExploreSansMonoVariable-ExtraLightItalic.ufo
<glyph name="exclam" format="2">
  <advance width="600"/>
  <unicode hex="0021"/>
  <outline>
    <contour>
      <point x="334" y="715" type="line"/>
      <point x="380" y="715" type="line"/>
      <point x="262" y="184" type="line"/>
      <point x="222" y="184" type="line"/>
    </contour>
    <contour>
      <point x="218" y="71" type="curve" smooth="yes"/>
      <point x="250" y="71"/>
      <point x="252" y="46"/>
      <point x="249" y="30" type="curve" smooth="yes"/>
      <point x="245" y="11"/>
      <point x="232" y="-8"/>
      <point x="201" y="-8" type="curve" smooth="yes"/>
      <point x="171" y="-8"/>
      <point x="166" y="11"/>
      <point x="170" y="30" type="curve" smooth="yes"/>
      <point x="173" y="46"/>
      <point x="186" y="71"/>
    </contour>
  </outline>
</glyph>
<glyph name="quotedbl" format="2">
  <advance width="600"/>
  <unicode hex="0022"/>
  <outline>
    <contour>
      <point x="200" y="772" type="line"/>
      <point x="233" y="772" type="line"/>
      <point x="157" y="434" type="line"/>
      <point x="132" y="434" type="line"/>
    </contour>
    <contour>
      <point x="439" y="772" type="line"/>
      <point x="472" y="772" type="line"/>
      <point x="396" y="434" type="line"/>
      <point x="371" y="434" type="line"/>
    </contour>
  </outline>
</glyph>
<glyph name="numbersign" format="2">
  <advance width="600"/>
  <unicode hex="0023"/>
  <outline>
    <contour>
      <point x="376" y="724" type="line"/>
      <point x="409" y="724" type="line"/>
      <point x="289" y="495" type="line"/>
      <point x="449" y="495" type="line"/>
      <point x="570" y="724" type="line"/>
      <point x="603" y="724" type="line"/>
      <point x="483" y="495" type="line"/>
      <point x="570" y="495" type="line"/>
      <point x="564" y="467" type="line"/>
      <point x="469" y="467" type="line"/>
      <point x="360" y="258" type="line"/>
      <point x="520" y="258" type="line"/>
      <point x="514" y="230" type="line"/>
      <point x="345" y="230" type="line"/>
      <point x="224" y="0" type="line"/>
      <point x="191" y="0" type="line"/>
      <point x="312" y="230" type="line"/>
      <point x="151" y="230" type="line"/>
      <point x="30" y="0" type="line"/>
      <point x="-3" y="0" type="line"/>
      <point x="118" y="230" type="line"/>
      <point x="30" y="230" type="line"/>
      <point x="36" y="258" type="line"/>
      <point x="133" y="258" type="line"/>
      <point x="242" y="467" type="line"/>
      <point x="80" y="467" type="line"/>
      <point x="86" y="495" type="line"/>
      <point x="255" y="495" type="line"/>
    </contour>
    <contour>
      <point x="327" y="258" type="line"/>
      <point x="436" y="467" type="line"/>
      <point x="275" y="467" type="line"/>
      <point x="166" y="258" type="line"/>
    </contour>
  </outline>
</glyph>
<glyph name="dollar" format="2">
  <advance width="600"/>
  <unicode hex="0024"/>
  <outline>
    <contour>
      <point x="216" y="0" type="line"/>
      <point x="248" y="0" type="line"/>
      <point x="218" y="-139" type="line"/>
      <point x="186" y="-139" type="line"/>
    </contour>
    <contour>
      <point x="412" y="847" type="line"/>
      <point x="444" y="847" type="line"/>
      <point x="414" y="708" type="line"/>
      <point x="382" y="708" type="line"/>
    </contour>
    <component base="S" xOffset="4"/>
  </outline>
</glyph>
<glyph name="percent" format="2">
  <advance width="600"/>
  <unicode hex="0025"/>
  <outline>
    <contour>
      <point x="539" y="558" type="line"/>
      <point x="560" y="531" type="line"/>
      <point x="60" y="150" type="line"/>
      <point x="39" y="177" type="line"/>
    </contour>
    <contour>
      <point x="425" y="299" type="curve" smooth="yes"/>
      <point x="505" y="299"/>
      <point x="544" y="238"/>
      <point x="524" y="146" type="curve" smooth="yes"/>
      <point x="504" y="53"/>
      <point x="440" y="-8"/>
      <point x="360" y="-8" type="curve" smooth="yes"/>
      <point x="281" y="-8"/>
      <point x="242" y="53"/>
      <point x="262" y="146" type="curve" smooth="yes"/>
      <point x="282" y="238"/>
      <point x="346" y="299"/>
    </contour>
    <contour>
      <point x="415" y="253" type="curve" smooth="yes"/>
      <point x="366" y="253"/>
      <point x="333" y="216"/>
      <point x="318" y="144" type="curve" smooth="yes"/>
      <point x="303" y="75"/>
      <point x="320" y="41"/>
      <point x="370" y="41" type="curve" smooth="yes"/>
      <point x="419" y="41"/>
      <point x="452" y="75"/>
      <point x="467" y="144" type="curve" smooth="yes"/>
      <point x="470" y="158"/>
      <point x="494" y="253"/>
    </contour>
    <contour>
      <point x="229" y="667" type="curve" smooth="yes"/>
      <point x="181" y="667"/>
      <point x="148" y="631"/>
      <point x="133" y="560" type="curve" smooth="yes"/>
      <point x="119" y="492"/>
      <point x="136" y="457"/>
      <point x="185" y="457" type="curve" smooth="yes"/>
      <point x="234" y="457"/>
      <point x="268" y="493"/>
      <point x="282" y="561" type="curve" smooth="yes"/>
      <point x="286" y="580"/>
      <point x="304" y="667"/>
    </contour>
    <contour>
      <point x="240" y="716" type="curve" smooth="yes"/>
      <point x="319" y="716"/>
      <point x="358" y="654"/>
      <point x="338" y="561" type="curve" smooth="yes"/>
      <point x="319" y="470"/>
      <point x="256" y="407"/>
      <point x="175" y="407" type="curve" smooth="yes"/>
      <point x="93" y="407"/>
      <point x="57" y="471"/>
      <point x="76" y="561" type="curve" smooth="yes"/>
      <point x="96" y="654"/>
      <point x="160" y="716"/>
    </contour>
  </outline>
</glyph>
<glyph name="ampersand" format="2">
  <advance width="600"/>
  <unicode hex="0026"/>
  <outline>
    <contour>
      <point x="374" y="716" type="curve" smooth="yes"/>
      <point x="419" y="716"/>
      <point x="439" y="710"/>
      <point x="474" y="694" type="curve"/>
      <point x="459" y="666" type="line"/>
      <point x="430" y="680"/>
      <point x="411" y="688"/>
      <point x="367" y="688" type="curve" smooth="yes"/>
      <point x="308" y="688"/>
      <point x="254" y="656"/>
      <point x="239" y="585" type="curve" smooth="yes"/>
      <point x="226" y="526"/>
      <point x="248" y="469"/>
      <point x="269" y="426" type="curve" smooth="yes"/>
      <point x="482" y="0" type="line"/>
      <point x="446" y="0" type="line"/>
      <point x="252" y="394" type="line" smooth="yes"/>
      <point x="217" y="467"/>
      <point x="194" y="521"/>
      <point x="208" y="587" type="curve" smooth="yes"/>
      <point x="226" y="671"/>
      <point x="295" y="716"/>
    </contour>
    <contour>
      <point x="252" y="439" type="line"/>
      <point x="247" y="414" type="line"/>
      <point x="243" y="414" type="line" smooth="yes"/>
      <point x="157" y="414"/>
      <point x="73" y="351"/>
      <point x="42" y="204" type="curve" smooth="yes"/>
      <point x="18" y="89"/>
      <point x="67" y="20"/>
      <point x="165" y="20" type="curve" smooth="yes"/>
      <point x="263" y="20"/>
      <point x="327" y="80"/>
      <point x="359" y="150" type="curve"/>
      <point x="478" y="416" type="line"/>
      <point x="582" y="407" type="line"/>
      <point x="576" y="379" type="line"/>
      <point x="495" y="386" type="line"/>
      <point x="473" y="339"/>
      <point x="406" y="192"/>
      <point x="381" y="137" type="curve"/>
      <point x="347" y="62"/>
      <point x="269" y="-8"/>
      <point x="158" y="-8" type="curve" smooth="yes"/>
      <point x="40" y="-8"/>
      <point x="-17" y="77"/>
      <point x="11" y="207" type="curve" smooth="yes"/>
      <point x="42" y="352"/>
      <point x="147" y="439"/>
      <point x="238" y="439" type="curve" smooth="yes"/>
    </contour>
  </outline>
</glyph>
<glyph name="parenleft" format="2">
  <advance width="600"/>
  <unicode hex="0028"/>
  <outline>
    <contour>
      <point x="505" y="800" type="curve"/>
      <point x="547" y="800" type="line"/>
      <point x="425" y="714"/>
      <point x="302" y="567"/>
      <point x="259" y="366" type="curve" smooth="yes"/>
      <point x="222" y="194"/>
      <point x="277" y="31"/>
      <point x="361" y="-64" type="curve"/>
      <point x="320" y="-64" type="line"/>
      <point x="242" y="24"/>
      <point x="183" y="158"/>
      <point x="227" y="366" type="curve" smooth="yes"/>
      <point x="276" y="598"/>
      <point x="391" y="714"/>
    </contour>
  </outline>
</glyph>
<glyph name="parenright" format="2">
  <advance width="600"/>
  <unicode hex="0029"/>
  <outline>
    <contour>
      <point x="277" y="800" type="curve"/>
      <point x="319" y="800" type="line"/>
      <point x="397" y="714"/>
      <point x="462" y="598"/>
      <point x="413" y="366" type="curve" smooth="yes"/>
      <point x="369" y="158"/>
      <point x="252" y="24"/>
      <point x="136" y="-64" type="curve"/>
      <point x="95" y="-64" type="line"/>
      <point x="219" y="31"/>
      <point x="344" y="194"/>
      <point x="381" y="366" type="curve" smooth="yes"/>
      <point x="424" y="567"/>
      <point x="363" y="714"/>
    </contour>
  </outline>
</glyph>
<glyph name="asterisk" format="2">
  <advance width="600"/>
  <unicode hex="002A"/>
  <outline>
    <contour>
      <point x="328" y="806" type="line"/>
      <point x="362" y="806" type="line"/>
      <point x="331" y="659" type="line"/>
      <point x="319" y="620" type="line"/>
      <point x="359" y="637" type="line"/>
      <point x="505" y="683" type="line"/>
      <point x="510" y="646" type="line"/>
      <point x="373" y="605" type="line"/>
      <point x="330" y="597" type="line"/>
      <point x="346" y="568" type="line"/>
      <point x="406" y="441" type="line"/>
      <point x="368" y="419" type="line"/>
      <point x="311" y="545" type="line"/>
      <point x="300" y="582" type="line"/>
      <point x="271" y="545" type="line"/>
      <point x="157" y="419" type="line"/>
      <point x="131" y="441" type="line"/>
      <point x="243" y="567" type="line"/>
      <point x="273" y="596" type="line"/>
      <point x="233" y="605" type="line"/>
      <point x="116" y="646" type="line"/>
      <point x="138" y="683" type="line"/>
      <point x="258" y="638" type="line"/>
      <point x="293" y="620" type="line"/>
      <point x="297" y="659" type="line"/>
    </contour>
  </outline>
</glyph>
<glyph name="hyphen" format="2">
  <advance width="600"/>
  <unicode hex="002D"/>
  <outline>
    <contour>
      <point x="83" y="280" type="line"/>
      <point x="535" y="280" type="line"/>
      <point x="529" y="252" type="line"/>
      <point x="77" y="252" type="line"/>
    </contour>
  </outline>
</glyph>
<glyph name="zero" format="2">
  <advance width="600"/>
  <unicode hex="0030"/>
  <outline>
    <contour>
      <point x="370" y="688" type="curve" smooth="yes"/>
      <point x="246" y="688"/>
      <point x="154" y="590"/>
      <point x="105" y="358" type="curve" smooth="yes"/>
      <point x="55" y="125"/>
      <point x="104" y="21"/>
      <point x="227" y="21" type="curve" smooth="yes"/>
      <point x="352" y="21"/>
      <point x="447" y="126"/>
      <point x="497" y="360" type="curve" smooth="yes"/>
      <point x="546" y="589"/>
      <point x="494" y="688"/>
    </contour>
    <contour>
      <point x="376" y="716" type="curve" smooth="yes"/>
      <point x="525" y="716"/>
      <point x="581" y="603"/>
      <point x="529" y="360" type="curve" smooth="yes"/>
      <point x="477" y="114"/>
      <point x="373" y="-7"/>
      <point x="221" y="-7" type="curve" smooth="yes"/>
      <point x="79" y="-7"/>
      <point x="22" y="115"/>
      <point x="73" y="357" type="curve" smooth="yes"/>
      <point x="126" y="604"/>
      <point x="233" y="716"/>
    </contour>
    <contour>
      <point x="331" y="363" type="curve" smooth="yes"/>
      <point x="335" y="380"/>
      <point x="324" y="393"/>
      <point x="307" y="393" type="curve" smooth="yes"/>
      <point x="290" y="393"/>
      <point x="275" y="380"/>
      <point x="271" y="363" type="curve" smooth="yes"/>
      <point x="267" y="346"/>
      <point x="277" y="333"/>
      <point x="294" y="333" type="curve" smooth="yes"/>
      <point x="311" y="333"/>
      <point x="327" y="346"/>
    </contour>
  </outline>
</glyph>
<glyph name="two" format="2">
  <advance width="600"/>
  <unicode hex="0032"/>
  <outline>
    <contour>
      <point x="144" y="639" type="line"/>
      <point x="225" y="694"/>
      <point x="284" y="716"/>
      <point x="372" y="716" type="curve" smooth="yes"/>
      <point x="489" y="716"/>
      <point x="541" y="659"/>
      <point x="541" y="563" type="curve" smooth="yes"/>
      <point x="541" y="443"/>
      <point x="470" y="388"/>
      <point x="396" y="322" type="curve"/>
      <point x="379" y="307"/>
      <point x="63" y="29"/>
      <point x="62" y="28" type="curve"/>
      <point x="453" y="28" type="line"/>
      <point x="449" y="0" type="line"/>
      <point x="13" y="0" type="line"/>
      <point x="19" y="28" type="line"/>
      <point x="332" y="303" type="line" smooth="yes"/>
      <point x="449" y="405"/>
      <point x="510" y="457"/>
      <point x="510" y="567" type="curve" smooth="yes"/>
      <point x="510" y="645"/>
      <point x="458" y="688"/>
      <point x="366" y="688" type="curve" smooth="yes"/>
      <point x="280" y="688"/>
      <point x="223" y="662"/>
      <point x="156" y="613" type="curve"/>
    </contour>
  </outline>
</glyph>
<glyph name="three" format="2">
  <advance width="600"/>
  <unicode hex="0033"/>
  <outline>
    <contour>
      <point x="182" y="708" type="line"/>
      <point x="565" y="708" type="line"/>
      <point x="559" y="680" type="line"/>
      <point x="303" y="420" type="line"/>
      <point x="424" y="420"/>
      <point x="503" y="361"/>
      <point x="503" y="231" type="curve" smooth="yes"/>
      <point x="503" y="69"/>
      <point x="373" y="-8"/>
      <point x="230" y="-8" type="curve" smooth="yes"/>
      <point x="106" y="-8"/>
      <point x="57" y="33"/>
      <point x="16" y="64" type="curve"/>
      <point x="34" y="90" type="line"/>
      <point x="79" y="53"/>
      <point x="136" y="20"/>
      <point x="233" y="20" type="curve" smooth="yes"/>
      <point x="344" y="20"/>
      <point x="472" y="74"/>
      <point x="472" y="237" type="curve" smooth="yes"/>
      <point x="472" y="341"/>
      <point x="414" y="392"/>
      <point x="291" y="392" type="curve" smooth="yes"/>
      <point x="279" y="392" type="line"/>
      <point x="265" y="421" type="line"/>
      <point x="518" y="680" type="line"/>
      <point x="176" y="680" type="line"/>
    </contour>
  </outline>
</glyph>
<glyph name="four" format="2">
  <advance width="600"/>
  <unicode hex="0034"/>
  <outline>
    <contour>
      <point x="395" y="708" type="line"/>
      <point x="427" y="708" type="line"/>
      <point x="81" y="214" type="line"/>
      <point x="366" y="214" type="line"/>
      <point x="410" y="418" type="line"/>
      <point x="442" y="418" type="line"/>
      <point x="398" y="214" type="line"/>
      <point x="495" y="214" type="line"/>
      <point x="489" y="186" type="line"/>
      <point x="392" y="186" type="line"/>
      <point x="353" y="0" type="line"/>
      <point x="321" y="0" type="line"/>
      <point x="360" y="186" type="line"/>
      <point x="42" y="186" type="line"/>
      <point x="48" y="213" type="line"/>
    </contour>
  </outline>
</glyph>
<glyph name="five" format="2">
  <advance width="600"/>
  <unicode hex="0035"/>
  <outline>
    <contour>
      <point x="202" y="708" type="line"/>
      <point x="551" y="708" type="line"/>
      <point x="545" y="680" type="line"/>
      <point x="225" y="680" type="line"/>
      <point x="154" y="376" type="line"/>
      <point x="192" y="408"/>
      <point x="248" y="433"/>
      <point x="318" y="433" type="curve" smooth="yes"/>
      <point x="423" y="433"/>
      <point x="491" y="366"/>
      <point x="491" y="252" type="curve" smooth="yes"/>
      <point x="491" y="75"/>
      <point x="354" y="-8"/>
      <point x="217" y="-8" type="curve" smooth="yes"/>
      <point x="131" y="-8"/>
      <point x="77" y="20"/>
      <point x="28" y="63" type="curve"/>
      <point x="50" y="89" type="line"/>
      <point x="94" y="44"/>
      <point x="158" y="20"/>
      <point x="223" y="20" type="curve" smooth="yes"/>
      <point x="330" y="20"/>
      <point x="458" y="88"/>
      <point x="458" y="252" type="curve" smooth="yes"/>
      <point x="458" y="338"/>
      <point x="409" y="405"/>
      <point x="307" y="405" type="curve" smooth="yes"/>
      <point x="243" y="405"/>
      <point x="197" y="386"/>
      <point x="147" y="348" type="curve"/>
      <point x="118" y="348" type="line"/>
    </contour>
  </outline>
</glyph>
<glyph name="six" format="2">
  <advance width="600"/>
  <unicode hex="0036"/>
  <outline>
    <contour>
      <point x="372" y="708" type="line"/>
      <point x="413" y="708" type="line"/>
      <point x="394" y="686"/>
      <point x="159" y="444"/>
      <point x="110" y="340" type="curve"/>
      <point x="141" y="387"/>
      <point x="215" y="439"/>
      <point x="322" y="439" type="curve" smooth="yes"/>
      <point x="412" y="439"/>
      <point x="486" y="384"/>
      <point x="486" y="271" type="curve" smooth="yes"/>
      <point x="486" y="77"/>
      <point x="352" y="-8"/>
      <point x="236" y="-8" type="curve" smooth="yes"/>
      <point x="114" y="-8"/>
      <point x="61" y="72"/>
      <point x="61" y="178" type="curve" smooth="yes"/>
      <point x="61" y="270"/>
      <point x="82" y="383"/>
      <point x="186" y="499" type="curve" smooth="yes"/>
    </contour>
    <contour>
      <point x="316" y="411" type="curve" smooth="yes"/>
      <point x="220" y="411"/>
      <point x="158" y="375"/>
      <point x="122" y="324" type="curve" smooth="yes"/>
      <point x="101" y="293"/>
      <point x="88" y="229"/>
      <point x="88" y="183" type="curve" smooth="yes"/>
      <point x="88" y="82"/>
      <point x="142" y="20"/>
      <point x="241" y="20" type="curve" smooth="yes"/>
      <point x="347" y="20"/>
      <point x="454" y="98"/>
      <point x="454" y="271" type="curve" smooth="yes"/>
      <point x="454" y="362"/>
      <point x="401" y="411"/>
    </contour>
  </outline>
</glyph>
<glyph name="seven" format="2">
  <advance width="600"/>
  <unicode hex="0037"/>
  <outline>
    <contour>
      <point x="157" y="708" type="line"/>
      <point x="591" y="708" type="line"/>
      <point x="585" y="680" type="line"/>
      <point x="151" y="0" type="line"/>
      <point x="117" y="0" type="line"/>
      <point x="550" y="680" type="line"/>
      <point x="151" y="680" type="line"/>
    </contour>
  </outline>
</glyph>
<glyph name="eight" format="2">
  <advance width="600"/>
  <unicode hex="0038"/>
  <outline>
    <contour>
      <point x="383" y="716" type="curve" smooth="yes"/>
      <point x="508" y="716"/>
      <point x="580" y="657"/>
      <point x="553" y="529" type="curve" smooth="yes"/>
      <point x="536" y="447"/>
      <point x="474" y="392"/>
      <point x="399" y="369" type="curve"/>
      <point x="456" y="354"/>
      <point x="519" y="296"/>
      <point x="497" y="191" type="curve" smooth="yes"/>
      <point x="469" y="58"/>
      <point x="374" y="-8"/>
      <point x="229" y="-8" type="curve" smooth="yes"/>
      <point x="92" y="-8"/>
      <point x="17" y="58"/>
      <point x="45" y="188" type="curve" smooth="yes"/>
      <point x="68" y="295"/>
      <point x="154" y="348"/>
      <point x="217" y="369" type="curve"/>
      <point x="158" y="389"/>
      <point x="112" y="431"/>
      <point x="133" y="529" type="curve" smooth="yes"/>
      <point x="161" y="659"/>
      <point x="259" y="716"/>
    </contour>
    <contour>
      <point x="377" y="688" type="curve" smooth="yes"/>
      <point x="266" y="688"/>
      <point x="187" y="631"/>
      <point x="165" y="527" type="curve" smooth="yes"/>
      <point x="146" y="437"/>
      <point x="204" y="385"/>
      <point x="313" y="385" type="curve" smooth="yes"/>
      <point x="426" y="385"/>
      <point x="502" y="436"/>
      <point x="521" y="527" type="curve" smooth="yes"/>
      <point x="543" y="632"/>
      <point x="492" y="688"/>
    </contour>
    <contour>
      <point x="307" y="357" type="curve" smooth="yes"/>
      <point x="188" y="357"/>
      <point x="97" y="282"/>
      <point x="76" y="184" type="curve" smooth="yes"/>
      <point x="56" y="88"/>
      <point x="115" y="20"/>
      <point x="235" y="20" type="curve" smooth="yes"/>
      <point x="361" y="20"/>
      <point x="443" y="86"/>
      <point x="465" y="189" type="curve" smooth="yes"/>
      <point x="485" y="283"/>
      <point x="433" y="357"/>
    </contour>
  </outline>
</glyph>
<glyph name="nine" format="2">
  <advance width="600"/>
  <unicode hex="0039"/>
  <outline>
    <contour>
      <point x="350" y="716" type="curve" smooth="yes"/>
      <point x="472" y="716"/>
      <point x="526" y="636"/>
      <point x="526" y="530" type="curve" smooth="yes"/>
      <point x="526" y="438"/>
      <point x="505" y="331"/>
      <point x="378" y="191" type="curve" smooth="yes"/>
      <point x="205" y="0" type="line"/>
      <point x="164" y="0" type="line"/>
      <point x="183" y="22"/>
      <point x="421" y="260"/>
      <point x="470" y="364" type="curve"/>
      <point x="439" y="317"/>
      <point x="362" y="269"/>
      <point x="255" y="269" type="curve" smooth="yes"/>
      <point x="165" y="269"/>
      <point x="91" y="324"/>
      <point x="91" y="437" type="curve" smooth="yes"/>
      <point x="91" y="631"/>
      <point x="222" y="716"/>
    </contour>
    <contour>
      <point x="345" y="688" type="curve" smooth="yes"/>
      <point x="239" y="688"/>
      <point x="123" y="610"/>
      <point x="123" y="437" type="curve" smooth="yes"/>
      <point x="123" y="346"/>
      <point x="176" y="297"/>
      <point x="261" y="297" type="curve" smooth="yes"/>
      <point x="357" y="297"/>
      <point x="425" y="339"/>
      <point x="461" y="390" type="curve" smooth="yes"/>
      <point x="482" y="421"/>
      <point x="499" y="479"/>
      <point x="499" y="525" type="curve" smooth="yes"/>
      <point x="499" y="626"/>
      <point x="444" y="688"/>
    </contour>
  </outline>
</glyph>
<glyph name="colon" format="2">
  <advance width="600"/>
  <unicode hex="003A"/>
  <outline>
    <contour>
      <point x="316" y="528" type="curve" smooth="yes"/>
      <point x="339" y="528"/>
      <point x="352" y="512"/>
      <point x="347" y="488" type="curve" smooth="yes"/>
      <point x="342" y="464"/>
      <point x="322" y="449"/>
      <point x="299" y="449" type="curve" smooth="yes"/>
      <point x="276" y="449"/>
      <point x="263" y="464"/>
      <point x="268" y="488" type="curve" smooth="yes"/>
      <point x="273" y="512"/>
      <point x="293" y="528"/>
    </contour>
    <contour>
      <point x="219" y="71" type="curve" smooth="yes"/>
      <point x="242" y="71"/>
      <point x="255" y="55"/>
      <point x="250" y="31" type="curve" smooth="yes"/>
      <point x="245" y="7"/>
      <point x="225" y="-8"/>
      <point x="202" y="-8" type="curve" smooth="yes"/>
      <point x="179" y="-8"/>
      <point x="166" y="7"/>
      <point x="171" y="31" type="curve" smooth="yes"/>
      <point x="176" y="55"/>
      <point x="196" y="71"/>
    </contour>
  </outline>
</glyph>
<glyph name="less" format="2">
  <advance width="600"/>
  <unicode hex="003C"/>
  <outline>
    <contour>
      <point x="83" y="303" type="line"/>
      <point x="529" y="465" type="line"/>
      <point x="534" y="435" type="line"/>
      <point x="102" y="279" type="line"/>
      <point x="467" y="122" type="line"/>
      <point x="449" y="87" type="line"/>
      <point x="72" y="253" type="line"/>
    </contour>
  </outline>
</glyph>
<glyph name="question" format="2">
  <advance width="600"/>
  <unicode hex="003F"/>
  <outline>
    <contour>
      <point x="315" y="732" type="curve"/>
      <point x="410" y="732"/>
      <point x="495" y="688"/>
      <point x="471" y="576" type="curve" smooth="yes"/>
      <point x="453" y="491"/>
      <point x="393" y="445"/>
      <point x="326" y="399" type="curve"/>
      <point x="248" y="343"/>
      <point x="210" y="310"/>
      <point x="197" y="249" type="curve" smooth="yes"/>
      <point x="191" y="222"/>
      <point x="188" y="198"/>
      <point x="188" y="163" type="curve"/>
      <point x="157" y="157" type="line"/>
      <point x="154" y="182"/>
      <point x="156" y="210"/>
      <point x="164" y="247" type="curve" smooth="yes"/>
      <point x="180" y="324"/>
      <point x="239" y="370"/>
      <point x="312" y="422" type="curve"/>
      <point x="363" y="459"/>
      <point x="421" y="493"/>
      <point x="439" y="576" type="curve" smooth="yes"/>
      <point x="456" y="657"/>
      <point x="399" y="704"/>
      <point x="311" y="704" type="curve" smooth="yes"/>
      <point x="250" y="704"/>
      <point x="183" y="686"/>
      <point x="123" y="644" type="curve"/>
      <point x="114" y="669" type="line"/>
      <point x="178" y="712"/>
      <point x="244" y="732"/>
    </contour>
    <contour>
      <point x="160" y="73" type="curve" smooth="yes"/>
      <point x="185" y="73"/>
      <point x="195" y="53"/>
      <point x="191" y="33" type="curve" smooth="yes"/>
      <point x="187" y="12"/>
      <point x="168" y="-6"/>
      <point x="143" y="-6" type="curve" smooth="yes"/>
      <point x="117" y="-6"/>
      <point x="108" y="12"/>
      <point x="112" y="33" type="curve" smooth="yes"/>
      <point x="116" y="52"/>
      <point x="133" y="73"/>
    </contour>
  </outline>
</glyph>
<glyph name="at" format="2">
  <advance width="600"/>
  <unicode hex="0040"/>
  <outline>
    <contour>
      <point x="465" y="800" type="curve" smooth="yes"/>
      <point x="568" y="800"/>
      <point x="659" y="743"/>
      <point x="633" y="620" type="curve"/>
      <point x="493" y="245" type="line"/>
      <point x="548" y="155" type="line"/>
      <point x="521" y="129" type="line"/>
      <point x="469" y="219" type="line"/>
      <point x="427" y="165"/>
      <point x="386" y="124"/>
      <point x="301" y="124" type="curve" smooth="yes"/>
      <point x="221" y="124"/>
      <point x="175" y="184"/>
      <point x="202" y="312" type="curve" smooth="yes"/>
      <point x="237" y="479"/>
      <point x="353" y="581"/>
      <point x="451" y="581" type="curve" smooth="yes"/>
      <point x="515" y="581"/>
      <point x="549" y="533"/>
      <point x="557" y="511" type="curve"/>
      <point x="601" y="625" type="line"/>
      <point x="620" y="715"/>
      <point x="551" y="772"/>
      <point x="463" y="772" type="curve" smooth="yes"/>
      <point x="300" y="772"/>
      <point x="117" y="625"/>
      <point x="57" y="342" type="curve" smooth="yes"/>
      <point x="0" y="73"/>
      <point x="69" y="-53"/>
      <point x="261" y="-53" type="curve" smooth="yes"/>
      <point x="317" y="-53"/>
      <point x="372" y="-44"/>
      <point x="426" y="-24" type="curve"/>
      <point x="420" y="-52" type="line"/>
      <point x="359" y="-74"/>
      <point x="287" y="-82"/>
      <point x="251" y="-82" type="curve" smooth="yes"/>
      <point x="92" y="-82"/>
      <point x="-41" y="14"/>
      <point x="30" y="346" type="curve" smooth="yes"/>
      <point x="92" y="639"/>
      <point x="290" y="800"/>
    </contour>
    <contour>
      <point x="443" y="548" type="curve" smooth="yes"/>
      <point x="353" y="548"/>
      <point x="258" y="445"/>
      <point x="231" y="317" type="curve" smooth="yes"/>
      <point x="208" y="207"/>
      <point x="234" y="152"/>
      <point x="315" y="152" type="curve" smooth="yes"/>
      <point x="391" y="152"/>
      <point x="449" y="208"/>
      <point x="478" y="288" type="curve" smooth="yes"/>
      <point x="542" y="469" type="line"/>
      <point x="523" y="513"/>
      <point x="497" y="548"/>
    </contour>
  </outline>
</glyph>
<glyph name="A" format="2">
  <advance width="600"/>
  <unicode hex="0041"/>
  <anchor x="432" y="881" name="AccentCenter"/>
  <outline>
    <contour>
      <point x="362" y="708" type="line"/>
      <point x="414" y="708" type="line"/>
      <point x="485" y="0" type="line"/>
      <point x="449" y="0" type="line"/>
      <point x="426" y="214" type="line"/>
      <point x="119" y="214" type="line"/>
      <point x="-0" y="0" type="line"/>
      <point x="-35" y="0" type="line"/>
    </contour>
    <contour>
      <point x="373" y="678" type="line"/>
      <point x="137" y="242" type="line"/>
      <point x="424" y="242" type="line"/>
      <point x="390" y="678" type="line"/>
    </contour>
  </outline>
</glyph>
<glyph name="B" format="2">
  <advance width="600"/>
  <unicode hex="0042"/>
  <outline>
    <contour>
      <point x="175" y="708" type="line"/>
      <point x="383" y="708" type="line" smooth="yes"/>
      <point x="508" y="708"/>
      <point x="558" y="641"/>
      <point x="535" y="534" type="curve" smooth="yes"/>
      <point x="519" y="461"/>
      <point x="480" y="397"/>
      <point x="390" y="375" type="curve"/>
      <point x="481" y="361"/>
      <point x="517" y="293"/>
      <point x="498" y="202" type="curve" smooth="yes"/>
      <point x="472" y="79"/>
      <point x="376" y="0"/>
      <point x="249" y="0" type="curve" smooth="yes"/>
      <point x="25" y="0" type="line"/>
    </contour>
    <contour>
      <point x="201" y="680" type="line"/>
      <point x="139" y="387" type="line"/>
      <point x="344" y="387" type="line" smooth="yes"/>
      <point x="434" y="387"/>
      <point x="488" y="449"/>
      <point x="506" y="534" type="curve" smooth="yes"/>
      <point x="522" y="610"/>
      <point x="495" y="680"/>
      <point x="384" y="680" type="curve" smooth="yes"/>
    </contour>
    <contour>
      <point x="134" y="362" type="line"/>
      <point x="63" y="28" type="line"/>
      <point x="266" y="28" type="line" smooth="yes"/>
      <point x="370" y="28"/>
      <point x="445" y="104"/>
      <point x="466" y="202" type="curve" smooth="yes"/>
      <point x="486" y="294"/>
      <point x="442" y="362"/>
      <point x="333" y="362" type="curve" smooth="yes"/>
    </contour>
  </outline>
</glyph>
<glyph name="C" format="2">
  <advance width="600"/>
  <unicode hex="0043"/>
  <outline>
    <contour>
      <point x="402" y="716" type="curve" smooth="yes"/>
      <point x="466" y="716"/>
      <point x="527" y="694"/>
      <point x="571" y="650" type="curve"/>
      <point x="552" y="627" type="line"/>
      <point x="512" y="669"/>
      <point x="457" y="688"/>
      <point x="396" y="688" type="curve" smooth="yes"/>
      <point x="214" y="688"/>
      <point x="91" y="508"/>
      <point x="91" y="269" type="curve" smooth="yes"/>
      <point x="91" y="115"/>
      <point x="160" y="20"/>
      <point x="285" y="20" type="curve" smooth="yes"/>
      <point x="360" y="20"/>
      <point x="415" y="45"/>
      <point x="466" y="74" type="curve"/>
      <point x="477" y="48" type="line"/>
      <point x="431" y="23"/>
      <point x="380" y="-8"/>
      <point x="285" y="-8" type="curve" smooth="yes"/>
      <point x="152" y="-8"/>
      <point x="59" y="81"/>
      <point x="59" y="269" type="curve" smooth="yes"/>
      <point x="59" y="531"/>
      <point x="193" y="716"/>
    </contour>
  </outline>
</glyph>
<glyph name="D" format="2">
  <advance width="600"/>
  <unicode hex="0044"/>
  <outline>
    <contour>
      <point x="206" y="680" type="line"/>
      <point x="68" y="28" type="line"/>
      <point x="183" y="28" type="line" smooth="yes"/>
      <point x="362" y="28"/>
      <point x="521" y="165"/>
      <point x="521" y="487" type="curve" smooth="yes"/>
      <point x="521" y="615"/>
      <point x="443" y="680"/>
      <point x="317" y="680" type="curve" smooth="yes"/>
    </contour>
    <contour>
      <point x="179" y="708" type="line"/>
      <point x="323" y="708" type="line" smooth="yes"/>
      <point x="451" y="708"/>
      <point x="553" y="647"/>
      <point x="553" y="487" type="curve" smooth="yes"/>
      <point x="553" y="143"/>
      <point x="381" y="0"/>
      <point x="175" y="0" type="curve" smooth="yes"/>
      <point x="29" y="0" type="line"/>
    </contour>
  </outline>
</glyph>
<glyph name="E" format="2">
  <advance width="600"/>
  <unicode hex="0045"/>
  <anchor x="414" y="880" name="AccentCenter"/>
  <outline>
    <contour>
      <point x="179" y="708" type="line"/>
      <point x="589" y="708" type="line"/>
      <point x="583" y="680" type="line"/>
      <point x="205" y="680" type="line"/>
      <point x="142" y="381" type="line"/>
      <point x="442" y="381" type="line"/>
      <point x="436" y="353" type="line"/>
      <point x="136" y="353" type="line"/>
      <point x="67" y="28" type="line"/>
      <point x="445" y="28" type="line"/>
      <point x="439" y="0" type="line"/>
      <point x="29" y="0" type="line"/>
    </contour>
  </outline>
</glyph>
<glyph name="F" format="2">
  <advance width="600"/>
  <unicode hex="0046"/>
  <outline>
    <contour>
      <point x="179" y="708" type="line"/>
      <point x="591" y="708" type="line"/>
      <point x="585" y="680" type="line"/>
      <point x="205" y="680" type="line"/>
      <point x="144" y="390" type="line"/>
      <point x="446" y="390" type="line"/>
      <point x="440" y="362" type="line"/>
      <point x="138" y="362" type="line"/>
      <point x="61" y="0" type="line"/>
      <point x="29" y="0" type="line"/>
    </contour>
  </outline>
</glyph>
<glyph name="G" format="2">
  <advance width="600"/>
  <unicode hex="0047"/>
  <outline>
    <contour>
      <point x="423" y="716" type="curve" smooth="yes"/>
      <point x="515" y="716"/>
      <point x="560" y="686"/>
      <point x="592" y="657" type="curve"/>
      <point x="570" y="633" type="line"/>
      <point x="544" y="659"/>
      <point x="501" y="688"/>
      <point x="419" y="688" type="curve" smooth="yes"/>
      <point x="264" y="688"/>
      <point x="155" y="554"/>
      <point x="112" y="352" type="curve" smooth="yes"/>
      <point x="86" y="231"/>
      <point x="62" y="20"/>
      <point x="281" y="20" type="curve" smooth="yes"/>
      <point x="321" y="20"/>
      <point x="375" y="29"/>
      <point x="430" y="45" type="curve"/>
      <point x="495" y="348" type="line"/>
      <point x="287" y="348" type="line"/>
      <point x="293" y="376" type="line"/>
      <point x="533" y="376" type="line"/>
      <point x="458" y="24" type="line"/>
      <point x="397" y="7"/>
      <point x="331" y="-8"/>
      <point x="262" y="-8" type="curve" smooth="yes"/>
      <point x="25" y="-8"/>
      <point x="53" y="225"/>
      <point x="80" y="352" type="curve" smooth="yes"/>
      <point x="124" y="559"/>
      <point x="247" y="716"/>
    </contour>
  </outline>
</glyph>
<glyph name="H" format="2">
  <advance width="600"/>
  <unicode hex="0048"/>
  <outline>
    <contour>
      <point x="179" y="708" type="line"/>
      <point x="211" y="708" type="line"/>
      <point x="144" y="393" type="line"/>
      <point x="472" y="393" type="line"/>
      <point x="539" y="708" type="line"/>
      <point x="571" y="708" type="line"/>
      <point x="421" y="0" type="line"/>
      <point x="389" y="0" type="line"/>
      <point x="466" y="365" type="line"/>
      <point x="138" y="365" type="line"/>
      <point x="61" y="0" type="line"/>
      <point x="29" y="0" type="line"/>
    </contour>
  </outline>
</glyph>
<glyph name="I" format="2">
  <advance width="600"/>
  <unicode hex="0049"/>
  <anchor x="408" y="876" name="AccentCenter"/>
  <outline>
    <contour>
      <point x="183" y="708" type="line"/>
      <point x="567" y="708" type="line"/>
      <point x="562" y="683" type="line"/>
      <point x="385" y="683" type="line"/>
      <point x="245" y="25" type="line"/>
      <point x="422" y="25" type="line"/>
      <point x="417" y="0" type="line"/>
      <point x="33" y="0" type="line"/>
      <point x="38" y="25" type="line"/>
      <point x="213" y="25" type="line"/>
      <point x="353" y="683" type="line"/>
      <point x="178" y="683" type="line"/>
    </contour>
  </outline>
</glyph>
<glyph name="J" format="2">
  <advance width="600"/>
  <unicode hex="004A"/>
  <outline>
    <contour>
      <point x="324" y="708" type="line"/>
      <point x="576" y="708" type="line"/>
      <point x="471" y="212" type="line" smooth="yes"/>
      <point x="444" y="83"/>
      <point x="334" y="-8"/>
      <point x="208" y="-8" type="curve" smooth="yes"/>
      <point x="114" y="-8"/>
      <point x="74" y="15"/>
      <point x="22" y="70" type="curve"/>
      <point x="46" y="95" type="line"/>
      <point x="104" y="38"/>
      <point x="140" y="20"/>
      <point x="214" y="20" type="curve" smooth="yes"/>
      <point x="319" y="20"/>
      <point x="413" y="89"/>
      <point x="439" y="212" type="curve" smooth="yes"/>
      <point x="538" y="680" type="line"/>
      <point x="318" y="680" type="line"/>
    </contour>
  </outline>
</glyph>
<glyph name="K" format="2">
  <advance width="600"/>
  <unicode hex="004B"/>
  <outline>
    <contour>
      <point x="175" y="708" type="line"/>
      <point x="207" y="708" type="line"/>
      <point x="136" y="373" type="line"/>
      <point x="205" y="373" type="line"/>
      <point x="534" y="708" type="line"/>
      <point x="572" y="708" type="line"/>
      <point x="232" y="358" type="line"/>
      <point x="422" y="0" type="line"/>
      <point x="385" y="0" type="line"/>
      <point x="199" y="344" type="line"/>
      <point x="130" y="344" type="line"/>
      <point x="57" y="0" type="line"/>
      <point x="25" y="0" type="line"/>
    </contour>
  </outline>
</glyph>
<glyph name="L" format="2">
  <advance width="600"/>
  <unicode hex="004C"/>
  <outline>
    <contour>
      <point x="175" y="708" type="line"/>
      <point x="207" y="708" type="line"/>
      <point x="63" y="28" type="line"/>
      <point x="438" y="28" type="line"/>
      <point x="432" y="0" type="line"/>
      <point x="25" y="0" type="line"/>
    </contour>
  </outline>
</glyph>
<glyph name="O" format="2">
  <advance width="600"/>
  <unicode hex="004F"/>
  <anchor x="411" y="876" name="AccentCenter"/>
  <outline>
    <contour>
      <point x="358" y="716" type="curve" smooth="yes"/>
      <point x="504" y="716"/>
      <point x="547" y="607"/>
      <point x="547" y="492" type="curve" smooth="yes"/>
      <point x="547" y="153"/>
      <point x="412" y="-8"/>
      <point x="238" y="-8" type="curve" smooth="yes"/>
      <point x="95" y="-8"/>
      <point x="55" y="88"/>
      <point x="55" y="205" type="curve" smooth="yes"/>
      <point x="55" y="563"/>
      <point x="196" y="716"/>
    </contour>
    <contour>
      <point x="352" y="688" type="curve" smooth="yes"/>
      <point x="206" y="688"/>
      <point x="87" y="526"/>
      <point x="87" y="205" type="curve" smooth="yes"/>
      <point x="87" y="109"/>
      <point x="114" y="20"/>
      <point x="244" y="20" type="curve" smooth="yes"/>
      <point x="389" y="20"/>
      <point x="515" y="176"/>
      <point x="515" y="492" type="curve" smooth="yes"/>
      <point x="515" y="585"/>
      <point x="479" y="688"/>
    </contour>
  </outline>
</glyph>
<glyph name="P" format="2">
  <advance width="600"/>
  <unicode hex="0050"/>
  <outline>
    <contour>
      <point x="202" y="680" type="line"/>
      <point x="123" y="310" type="line"/>
      <point x="299" y="310" type="line" smooth="yes"/>
      <point x="409" y="310"/>
      <point x="535" y="372"/>
      <point x="535" y="551" type="curve" smooth="yes"/>
      <point x="535" y="624"/>
      <point x="484" y="680"/>
      <point x="396" y="680" type="curve" smooth="yes"/>
    </contour>
    <contour>
      <point x="176" y="708" type="line"/>
      <point x="391" y="708" type="line" smooth="yes"/>
      <point x="509" y="708"/>
      <point x="568" y="637"/>
      <point x="568" y="551" type="curve" smooth="yes"/>
      <point x="568" y="383"/>
      <point x="456" y="282"/>
      <point x="298" y="282" type="curve" smooth="yes"/>
      <point x="117" y="282" type="line"/>
      <point x="57" y="0" type="line"/>
      <point x="25" y="0" type="line"/>
    </contour>
  </outline>
</glyph>
<glyph name="Q" format="2">
  <advance width="600"/>
  <unicode hex="0051"/>
  <outline>
    <contour>
      <point x="390" y="688" type="curve" smooth="yes"/>
      <point x="244" y="688"/>
      <point x="174" y="575"/>
      <point x="127" y="355" type="curve" smooth="yes"/>
      <point x="78" y="126"/>
      <point x="101" y="17"/>
      <point x="247" y="17" type="curve" smooth="yes"/>
      <point x="394" y="17"/>
      <point x="463" y="127"/>
      <point x="511" y="355" type="curve" smooth="yes"/>
      <point x="558" y="574"/>
      <point x="537" y="688"/>
    </contour>
    <contour>
      <point x="396" y="716" type="curve" smooth="yes"/>
      <point x="554" y="716"/>
      <point x="595" y="598"/>
      <point x="543" y="355" type="curve" smooth="yes"/>
      <point x="493" y="119"/>
      <point x="421" y="0"/>
      <point x="255" y="-11" type="curve"/>
      <point x="236" y="-128"/>
      <point x="290" y="-153"/>
      <point x="373" y="-153" type="curve" smooth="yes"/>
      <point x="434" y="-153" type="line"/>
      <point x="432" y="-170" type="line"/>
      <point x="417" y="-176"/>
      <point x="379" y="-184"/>
      <point x="351" y="-184" type="curve" smooth="yes"/>
      <point x="245" y="-184"/>
      <point x="206" y="-128"/>
      <point x="223" y="-11" type="curve"/>
      <point x="61" y="0"/>
      <point x="43" y="110"/>
      <point x="95" y="355" type="curve" smooth="yes"/>
      <point x="147" y="598"/>
      <point x="232" y="716"/>
    </contour>
  </outline>
</glyph>
<glyph name="R" format="2">
  <advance width="600"/>
  <unicode hex="0052"/>
  <outline>
    <contour>
      <point x="179" y="708" type="line"/>
      <point x="383" y="708" type="line" smooth="yes"/>
      <point x="496" y="708"/>
      <point x="550" y="646"/>
      <point x="550" y="562" type="curve" smooth="yes"/>
      <point x="550" y="417"/>
      <point x="438" y="321"/>
      <point x="322" y="321" type="curve"/>
      <point x="443" y="0" type="line"/>
      <point x="403" y="0" type="line"/>
      <point x="286" y="320" type="line"/>
      <point x="129" y="320" type="line"/>
      <point x="61" y="0" type="line"/>
      <point x="29" y="0" type="line"/>
    </contour>
    <contour>
      <point x="135" y="348" type="line"/>
      <point x="309" y="348" type="line" smooth="yes"/>
      <point x="429" y="348"/>
      <point x="518" y="428"/>
      <point x="518" y="562" type="curve" smooth="yes"/>
      <point x="518" y="630"/>
      <point x="479" y="680"/>
      <point x="380" y="680" type="curve" smooth="yes"/>
      <point x="205" y="680" type="line"/>
    </contour>
  </outline>
</glyph>
<glyph name="S" format="2">
  <advance width="600"/>
  <unicode hex="0053"/>
  <outline>
    <contour>
      <point x="395" y="716" type="curve" smooth="yes"/>
      <point x="462" y="716"/>
      <point x="530" y="691"/>
      <point x="581" y="656" type="curve"/>
      <point x="566" y="631" type="line"/>
      <point x="510" y="669"/>
      <point x="454" y="688"/>
      <point x="392" y="688" type="curve" smooth="yes"/>
      <point x="255" y="688"/>
      <point x="160" y="634"/>
      <point x="160" y="525" type="curve" smooth="yes"/>
      <point x="160" y="467"/>
      <point x="183" y="412"/>
      <point x="267" y="387" type="curve" smooth="yes"/>
      <point x="373" y="355" type="line" smooth="yes"/>
      <point x="455" y="329"/>
      <point x="490" y="277"/>
      <point x="490" y="201" type="curve"/>
      <point x="490" y="61"/>
      <point x="388" y="-8"/>
      <point x="230" y="-8" type="curve" smooth="yes"/>
      <point x="131" y="-8"/>
      <point x="76" y="13"/>
      <point x="0" y="59" type="curve"/>
      <point x="19" y="87" type="line"/>
      <point x="74" y="46"/>
      <point x="163" y="20"/>
      <point x="238" y="20" type="curve" smooth="yes"/>
      <point x="357" y="20"/>
      <point x="459" y="70"/>
      <point x="459" y="200" type="curve" smooth="yes"/>
      <point x="459" y="257"/>
      <point x="430" y="306"/>
      <point x="357" y="328" type="curve" smooth="yes"/>
      <point x="252" y="359" type="line" smooth="yes"/>
      <point x="145" y="391"/>
      <point x="128" y="459"/>
      <point x="128" y="524" type="curve" smooth="yes"/>
      <point x="128" y="643"/>
      <point x="226" y="716"/>
    </contour>
  </outline>
</glyph>
<glyph name="U" format="2">
  <advance width="600"/>
  <unicode hex="0055"/>
  <anchor x="391" y="880" name="AccentCenter"/>
  <outline>
    <contour>
      <point x="176" y="708" type="line"/>
      <point x="208" y="708" type="line"/>
      <point x="106" y="228" type="line" smooth="yes"/>
      <point x="73" y="72"/>
      <point x="143" y="20"/>
      <point x="245" y="20" type="curve" smooth="yes"/>
      <point x="347" y="20"/>
      <point x="440" y="72"/>
      <point x="473" y="228" type="curve" smooth="yes"/>
      <point x="575" y="708" type="line"/>
      <point x="607" y="708" type="line"/>
      <point x="505" y="228" type="line" smooth="yes"/>
      <point x="471" y="70"/>
      <point x="368" y="-8"/>
      <point x="239" y="-8" type="curve" smooth="yes"/>
      <point x="110" y="-8"/>
      <point x="40" y="68"/>
      <point x="74" y="228" type="curve" smooth="yes"/>
    </contour>
  </outline>
</glyph>
<glyph name="V" format="2">
  <advance width="600"/>
  <unicode hex="0056"/>
  <outline>
    <contour>
      <point x="140" y="708" type="line"/>
      <point x="172" y="708" type="line"/>
      <point x="234" y="32" type="line"/>
      <point x="585" y="708" type="line"/>
      <point x="617" y="708" type="line"/>
      <point x="251" y="0" type="line"/>
      <point x="205" y="0" type="line"/>
    </contour>
  </outline>
</glyph>
<glyph name="W" format="2">
  <advance width="600"/>
  <unicode hex="0057"/>
  <outline>
    <contour>
      <point x="139" y="708" type="line"/>
      <point x="171" y="708" type="line"/>
      <point x="101" y="31" type="line"/>
      <point x="338" y="552" type="line"/>
      <point x="364" y="552" type="line"/>
      <point x="376" y="31" type="line"/>
      <point x="579" y="708" type="line"/>
      <point x="611" y="708" type="line"/>
      <point x="394" y="0" type="line"/>
      <point x="351" y="0" type="line"/>
      <point x="340" y="501" type="line"/>
      <point x="117" y="0" type="line"/>
      <point x="70" y="0" type="line"/>
    </contour>
  </outline>
</glyph>
<glyph name="Y" format="2">
  <advance width="600"/>
  <unicode hex="0059"/>
  <anchor x="395" y="880" name="AccentCenter"/>
  <outline>
    <contour>
      <point x="115" y="708" type="line"/>
      <point x="154" y="708" type="line"/>
      <point x="279" y="304" type="line"/>
      <point x="578" y="708" type="line"/>
      <point x="616" y="708" type="line"/>
      <point x="291" y="268" type="line"/>
      <point x="234" y="0" type="line"/>
      <point x="202" y="0" type="line"/>
      <point x="259" y="268" type="line"/>
    </contour>
  </outline>
</glyph>
<glyph name="Z" format="2">
  <advance width="600"/>
  <unicode hex="005A"/>
  <outline>
    <contour>
      <point x="152" y="708" type="line"/>
      <point x="583" y="708" type="line"/>
      <point x="577" y="680" type="line"/>
      <point x="33" y="28" type="line"/>
      <point x="436" y="28" type="line"/>
      <point x="430" y="0" type="line"/>
      <point x="-11" y="0" type="line"/>
      <point x="-5" y="28" type="line"/>
      <point x="539" y="680" type="line"/>
      <point x="146" y="680" type="line"/>
    </contour>
  </outline>
</glyph>
<glyph name="backslash" format="2">
  <advance width="600"/>
  <unicode hex="005C"/>
  <outline>
    <contour>
      <point x="202" y="772" type="line"/>
      <point x="232" y="772" type="line"/>
      <point x="403" y="-34" type="line"/>
      <point x="373" y="-34" type="line"/>
    </contour>
  </outline>
</glyph>
<glyph name="bracketright" format="2">
  <advance width="600"/>
  <unicode hex="005D"/>
  <outline>
    <contour>
      <point x="284" y="800" type="line"/>
      <point x="590" y="800" type="line"/>
      <point x="406" y="-64" type="line"/>
      <point x="100" y="-64" type="line"/>
      <point x="106" y="-36" type="line"/>
      <point x="380" y="-36" type="line"/>
      <point x="552" y="772" type="line"/>
      <point x="278" y="772" type="line"/>
    </contour>
  </outline>
</glyph>
<glyph name="asciicircum" format="2">
  <advance width="600"/>
  <unicode hex="005E"/>
  <outline>
    <contour>
      <point x="63" y="718" type="line"/>
      <point x="226" y="852" type="line"/>
      <point x="294" y="852" type="line"/>
      <point x="400" y="718" type="line"/>
      <point x="344" y="665" type="line"/>
      <point x="246" y="784" type="line"/>
      <point x="98" y="665" type="line"/>
    </contour>
  </outline>
</glyph>
<glyph name="underscore" format="2">
  <advance width="600"/>
  <unicode hex="005F"/>
  <outline>
    <contour>
      <point x="83" y="0" type="line"/>
      <point x="535" y="0" type="line"/>
      <point x="529" y="-28" type="line"/>
      <point x="77" y="-28" type="line"/>
    </contour>
  </outline>
</glyph>
<glyph name="grave" format="2">
  <advance width="600"/>
  <unicode hex="0060"/>
  <outline>
    <contour>
      <point x="91" y="901" type="line"/>
      <point x="214" y="746" type="line"/>
      <point x="180" y="721" type="line"/>
      <point x="58" y="874" type="line"/>
    </contour>
  </outline>
</glyph>
<glyph name="a" format="2">
  <advance width="600"/>
  <unicode hex="0061"/>
  <anchor x="337" y="687" name="AccentCenter"/>
  <anchor x="327" y="687" name="Ring"/>
  <outline>
    <contour>
      <point x="321" y="500" type="curve"/>
      <point x="206" y="500"/>
      <point x="97" y="370"/>
      <point x="97" y="179" type="curve" smooth="yes"/>
      <point x="97" y="85"/>
      <point x="156" y="20"/>
      <point x="246" y="20" type="curve"/>
      <point x="402" y="141" type="line"/>
      <point x="460" y="421" type="line"/>
      <point x="433" y="477"/>
      <point x="381" y="500"/>
    </contour>
    <contour>
      <point x="329" y="528" type="curve"/>
      <point x="369" y="528"/>
      <point x="444" y="507"/>
      <point x="466" y="455" type="curve"/>
      <point x="482" y="520" type="line"/>
      <point x="512" y="520" type="line"/>
      <point x="412" y="31" type="line"/>
      <point x="497" y="19" type="line"/>
      <point x="493" y="-8" type="line"/>
      <point x="378" y="8" type="line"/>
      <point x="398" y="103" type="line"/>
      <point x="251" y="-8" type="line"/>
      <point x="127" y="-8"/>
      <point x="65" y="75"/>
      <point x="65" y="179" type="curve" smooth="yes"/>
      <point x="65" y="394"/>
      <point x="188" y="528"/>
    </contour>
  </outline>
</glyph>
<glyph name="b" format="2">
  <advance width="600"/>
  <unicode hex="0062"/>
  <outline>
    <contour>
      <point x="208" y="716" type="line"/>
      <point x="240" y="716" type="line"/>
      <point x="187" y="464" type="line"/>
      <point x="218" y="502"/>
      <point x="285" y="528"/>
      <point x="343" y="528" type="curve" smooth="yes"/>
      <point x="446" y="528"/>
      <point x="534" y="454"/>
      <point x="534" y="313" type="curve" smooth="yes"/>
      <point x="534" y="85"/>
      <point x="402" y="-8"/>
      <point x="265" y="-8" type="curve" smooth="yes"/>
      <point x="155" y="-8"/>
      <point x="103" y="49"/>
      <point x="77" y="99" type="curve"/>
    </contour>
    <contour>
      <point x="337" y="500" type="curve" smooth="yes"/>
      <point x="282" y="500"/>
      <point x="224" y="483"/>
      <point x="180" y="431" type="curve"/>
      <point x="110" y="105" type="line"/>
      <point x="136" y="57"/>
      <point x="183" y="20"/>
      <point x="264" y="20" type="curve" smooth="yes"/>
      <point x="401" y="20"/>
      <point x="502" y="116"/>
      <point x="502" y="311" type="curve" smooth="yes"/>
      <point x="502" y="434"/>
      <point x="428" y="500"/>
    </contour>
  </outline>
</glyph>
<glyph name="c" format="2">
  <advance width="600"/>
  <unicode hex="0063"/>
  <outline>
    <contour>
      <point x="402" y="528" type="curve" smooth="yes"/>
      <point x="479" y="528"/>
      <point x="520" y="499"/>
      <point x="555" y="460" type="curve"/>
      <point x="532" y="438" type="line"/>
      <point x="502" y="473"/>
      <point x="460" y="500"/>
      <point x="398" y="500" type="curve" smooth="yes"/>
      <point x="256" y="500"/>
      <point x="171" y="400"/>
      <point x="141" y="260" type="curve" smooth="yes"/>
      <point x="114" y="132"/>
      <point x="148" y="20"/>
      <point x="292" y="20" type="curve" smooth="yes"/>
      <point x="365" y="20"/>
      <point x="427" y="49"/>
      <point x="478" y="89" type="curve"/>
      <point x="490" y="65" type="line"/>
      <point x="436" y="22"/>
      <point x="364" y="-8"/>
      <point x="285" y="-8" type="curve" smooth="yes"/>
      <point x="123" y="-8"/>
      <point x="75" y="99"/>
      <point x="109" y="260" type="curve" smooth="yes"/>
      <point x="143" y="420"/>
      <point x="247" y="528"/>
    </contour>
  </outline>
</glyph>
<glyph name="d" format="2">
  <advance width="600"/>
  <unicode hex="0064"/>
  <outline>
    <contour>
      <point x="542" y="724" type="line"/>
      <point x="574" y="724" type="line"/>
      <point x="420" y="0" type="line"/>
      <point x="395" y="0" type="line"/>
      <point x="410" y="100" type="line"/>
      <point x="368" y="41"/>
      <point x="304" y="-8"/>
      <point x="217" y="-8" type="curve" smooth="yes"/>
      <point x="87" y="-8"/>
      <point x="10" y="70"/>
      <point x="52" y="266" type="curve" smooth="yes"/>
      <point x="85" y="420"/>
      <point x="201" y="528"/>
      <point x="331" y="528" type="curve" smooth="yes"/>
      <point x="436" y="528"/>
      <point x="474" y="459"/>
      <point x="480" y="432" type="curve"/>
    </contour>
    <contour>
      <point x="329" y="500" type="curve" smooth="yes"/>
      <point x="216" y="500"/>
      <point x="112" y="398"/>
      <point x="84" y="266" type="curve" smooth="yes"/>
      <point x="47" y="91"/>
      <point x="113" y="20"/>
      <point x="227" y="20" type="curve" smooth="yes"/>
      <point x="308" y="20"/>
      <point x="384" y="86"/>
      <point x="418" y="141" type="curve"/>
      <point x="470" y="388" type="line"/>
      <point x="454" y="451"/>
      <point x="410" y="500"/>
    </contour>
  </outline>
</glyph>
<glyph name="e" format="2">
  <advance width="600"/>
  <unicode hex="0065"/>
  <anchor x="405" y="687" name="AccentCenter"/>
  <outline>
    <contour>
      <point x="359" y="528" type="curve" smooth="yes"/>
      <point x="471" y="528"/>
      <point x="522" y="454"/>
      <point x="522" y="389" type="curve" smooth="yes"/>
      <point x="522" y="295"/>
      <point x="462" y="250"/>
      <point x="377" y="250" type="curve"/>
      <point x="110" y="250" type="line"/>
      <point x="110" y="110"/>
      <point x="170" y="20"/>
      <point x="309" y="20" type="curve" smooth="yes"/>
      <point x="372" y="20"/>
      <point x="428" y="35"/>
      <point x="478" y="56" type="curve"/>
      <point x="486" y="27" type="line"/>
      <point x="438" y="7"/>
      <point x="376" y="-8"/>
      <point x="308" y="-8" type="curve" smooth="yes"/>
      <point x="149" y="-8"/>
      <point x="75" y="95"/>
      <point x="75" y="240" type="curve" smooth="yes"/>
      <point x="75" y="362"/>
      <point x="161" y="528"/>
    </contour>
    <contour>
      <point x="353" y="500" type="curve" smooth="yes"/>
      <point x="243" y="500"/>
      <point x="137" y="427"/>
      <point x="114" y="278" type="curve"/>
      <point x="378" y="278" type="line" smooth="yes"/>
      <point x="450" y="278"/>
      <point x="490" y="316"/>
      <point x="490" y="388" type="curve" smooth="yes"/>
      <point x="490" y="456"/>
      <point x="436" y="500"/>
    </contour>
  </outline>
</glyph>
<glyph name="f" format="2">
  <advance width="600"/>
  <unicode hex="0066"/>
  <outline>
    <contour>
      <point x="491" y="780" type="curve" smooth="yes"/>
      <point x="542" y="780"/>
      <point x="570" y="766"/>
      <point x="594" y="755" type="curve"/>
      <point x="583" y="728" type="line"/>
      <point x="542" y="746"/>
      <point x="521" y="751"/>
      <point x="492" y="751" type="curve"/>
      <point x="429" y="751"/>
      <point x="382" y="716"/>
      <point x="367" y="653" type="curve" smooth="yes"/>
      <point x="337" y="520" type="line"/>
      <point x="548" y="520" type="line"/>
      <point x="542" y="492" type="line"/>
      <point x="331" y="492" type="line"/>
      <point x="224" y="-14" type="line"/>
      <point x="74" y="-218" type="line"/>
      <point x="49" y="-199" type="line"/>
      <point x="194" y="-3" type="line"/>
      <point x="299" y="492" type="line"/>
      <point x="101" y="492" type="line"/>
      <point x="107" y="520" type="line"/>
      <point x="305" y="520" type="line"/>
      <point x="335" y="653" type="line" smooth="yes"/>
      <point x="348" y="705"/>
      <point x="394" y="780"/>
    </contour>
  </outline>
</glyph>
<glyph name="g" format="2">
  <advance width="600"/>
  <unicode hex="0067"/>
  <outline>
    <contour>
      <point x="345" y="528" type="curve" smooth="yes"/>
      <point x="389" y="528"/>
      <point x="415" y="517"/>
      <point x="434" y="506" type="curve"/>
      <point x="587" y="520" type="line"/>
      <point x="609" y="520" type="line"/>
      <point x="602" y="486" type="line"/>
      <point x="460" y="486" type="line"/>
      <point x="485" y="460"/>
      <point x="500" y="420"/>
      <point x="487" y="360" type="curve" smooth="yes"/>
      <point x="469" y="273"/>
      <point x="380" y="202"/>
      <point x="275" y="202" type="curve" smooth="yes"/>
      <point x="239" y="202"/>
      <point x="204" y="211"/>
      <point x="204" y="211" type="curve"/>
      <point x="115" y="109" type="line"/>
      <point x="372" y="75" type="line" smooth="yes"/>
      <point x="436" y="66"/>
      <point x="494" y="35"/>
      <point x="477" y="-45" type="curve" smooth="yes"/>
      <point x="458" y="-136"/>
      <point x="364" y="-192"/>
      <point x="226" y="-192" type="curve" smooth="yes"/>
      <point x="119" y="-192"/>
      <point x="54" y="-156"/>
      <point x="11" y="-120" type="curve"/>
      <point x="17" y="-93" type="line"/>
      <point x="169" y="71" type="line"/>
      <point x="77" y="84" type="line"/>
      <point x="85" y="117" type="line"/>
      <point x="176" y="222" type="line"/>
      <point x="137" y="254"/>
      <point x="116" y="292"/>
      <point x="130" y="360" type="curve" smooth="yes"/>
      <point x="150" y="453"/>
      <point x="237" y="528"/>
    </contour>
    <contour>
      <point x="201" y="66" type="line"/>
      <point x="42" y="-103" type="line"/>
      <point x="72" y="-131"/>
      <point x="146" y="-164"/>
      <point x="229" y="-164" type="curve" smooth="yes"/>
      <point x="348" y="-164"/>
      <point x="428" y="-124"/>
      <point x="444" y="-47" type="curve" smooth="yes"/>
      <point x="457" y="15"/>
      <point x="415" y="38"/>
      <point x="364" y="45" type="curve" smooth="yes"/>
    </contour>
    <contour>
      <point x="339" y="500" type="curve" smooth="yes"/>
      <point x="245" y="500"/>
      <point x="179" y="438"/>
      <point x="162" y="360" type="curve" smooth="yes"/>
      <point x="146" y="285"/>
      <point x="183" y="228"/>
      <point x="281" y="228" type="curve" smooth="yes"/>
      <point x="358" y="228"/>
      <point x="438" y="280"/>
      <point x="455" y="360" type="curve" smooth="yes"/>
      <point x="474" y="451"/>
      <point x="417" y="500"/>
    </contour>
  </outline>
</glyph>
<glyph name="h" format="2">
  <advance width="600"/>
  <unicode hex="0068"/>
  <outline>
    <contour>
      <point x="183" y="706" type="line"/>
      <point x="215" y="706" type="line"/>
      <point x="158" y="440" type="line"/>
      <point x="200" y="487"/>
      <point x="282" y="528"/>
      <point x="356" y="528" type="curve" smooth="yes"/>
      <point x="476" y="528"/>
      <point x="527" y="459"/>
      <point x="499" y="329" type="curve" smooth="yes"/>
      <point x="429" y="0" type="line"/>
      <point x="397" y="0" type="line"/>
      <point x="467" y="329" type="line" smooth="yes"/>
      <point x="491" y="440"/>
      <point x="451" y="500"/>
      <point x="349" y="500" type="curve" smooth="yes"/>
      <point x="266" y="500"/>
      <point x="195" y="455"/>
      <point x="150" y="398" type="curve"/>
      <point x="65" y="0" type="line"/>
      <point x="33" y="0" type="line"/>
    </contour>
  </outline>
</glyph>
<glyph name="i" format="2">
  <advance width="600"/>
  <unicode hex="0069"/>
  <outline>
    <contour>
      <point x="361" y="731" type="curve" smooth="yes"/>
      <point x="383" y="731"/>
      <point x="396" y="714"/>
      <point x="391" y="692" type="curve" smooth="yes"/>
      <point x="386" y="670"/>
      <point x="366" y="654"/>
      <point x="344" y="654" type="curve" smooth="yes"/>
      <point x="322" y="654"/>
      <point x="309" y="670"/>
      <point x="314" y="692" type="curve" smooth="yes"/>
      <point x="319" y="714"/>
      <point x="339" y="731"/>
    </contour>
    <component base="dotlessi" xOffset="-4"/>
  </outline>
</glyph>
<glyph name="j" format="2">
  <advance width="600"/>
  <unicode hex="006A"/>
  <outline>
    <contour>
      <point x="522" y="731" type="curve" smooth="yes"/>
      <point x="547" y="731"/>
      <point x="557" y="710"/>
      <point x="553" y="693" type="curve" smooth="yes"/>
      <point x="549" y="673"/>
      <point x="531" y="654"/>
      <point x="506" y="654" type="curve" smooth="yes"/>
      <point x="487" y="654"/>
      <point x="471" y="667"/>
      <point x="477" y="693" type="curve" smooth="yes"/>
      <point x="482" y="717"/>
      <point x="503" y="731"/>
    </contour>
    <contour>
      <point x="219" y="520" type="line"/>
      <point x="496" y="520" type="line"/>
      <point x="385" y="-3" type="line"/>
      <point x="359" y="-125"/>
      <point x="259" y="-191"/>
      <point x="163" y="-191" type="curve" smooth="yes"/>
      <point x="74" y="-191"/>
      <point x="37" y="-157"/>
      <point x="-10" y="-122" type="curve"/>
      <point x="12" y="-95" type="line"/>
      <point x="60" y="-134"/>
      <point x="93" y="-163"/>
      <point x="167" y="-163" type="curve" smooth="yes"/>
      <point x="247" y="-163"/>
      <point x="329" y="-117"/>
      <point x="352" y="-9" type="curve" smooth="yes"/>
      <point x="458" y="492" type="line"/>
      <point x="213" y="492" type="line"/>
    </contour>
  </outline>
</glyph>
<glyph name="k" format="2">
  <advance width="600"/>
  <unicode hex="006B"/>
  <outline>
    <contour>
      <point x="179" y="708" type="line"/>
      <point x="211" y="708" type="line"/>
      <point x="123" y="291" type="line"/>
      <point x="257" y="291" type="line"/>
      <point x="529" y="521" type="line"/>
      <point x="571" y="521" type="line"/>
      <point x="281" y="276" type="line"/>
      <point x="457" y="0" type="line"/>
      <point x="415" y="0" type="line"/>
      <point x="251" y="263" type="line"/>
      <point x="117" y="263" type="line"/>
      <point x="61" y="0" type="line"/>
      <point x="29" y="0" type="line"/>
    </contour>
  </outline>
</glyph>
<glyph name="m" format="2">
  <advance width="600"/>
  <unicode hex="006D"/>
  <outline>
    <contour>
      <point x="146" y="520" type="line"/>
      <point x="175" y="520" type="line"/>
      <point x="163" y="446" type="line"/>
      <point x="186" y="484"/>
      <point x="242" y="528"/>
      <point x="290" y="528" type="curve" smooth="yes"/>
      <point x="335" y="528"/>
      <point x="369" y="500"/>
      <point x="361" y="434" type="curve"/>
      <point x="392" y="485"/>
      <point x="449" y="528"/>
      <point x="500" y="528" type="curve" smooth="yes"/>
      <point x="559" y="528"/>
      <point x="595" y="487"/>
      <point x="575" y="391" type="curve" smooth="yes"/>
      <point x="492" y="0" type="line"/>
      <point x="461" y="0" type="line"/>
      <point x="544" y="391" type="line" smooth="yes"/>
      <point x="559" y="463"/>
      <point x="544" y="500"/>
      <point x="492" y="500" type="curve" smooth="yes"/>
      <point x="431" y="500"/>
      <point x="384" y="437"/>
      <point x="357" y="391" type="curve"/>
      <point x="274" y="0" type="line"/>
      <point x="242" y="0" type="line"/>
      <point x="325" y="391" type="line" smooth="yes"/>
      <point x="342" y="470"/>
      <point x="321" y="500"/>
      <point x="281" y="500" type="curve" smooth="yes"/>
      <point x="239" y="500"/>
      <point x="194" y="463"/>
      <point x="156" y="416" type="curve"/>
      <point x="68" y="0" type="line"/>
      <point x="36" y="0" type="line"/>
    </contour>
  </outline>
</glyph>
<glyph name="n" format="2">
  <advance width="600"/>
  <unicode hex="006E"/>
  <anchor x="364" y="687" name="AccentCenter"/>
  <outline>
    <contour>
      <point x="158" y="519" type="line"/>
      <point x="178" y="519" type="line"/>
      <point x="169" y="420" type="line"/>
      <point x="204" y="476"/>
      <point x="280" y="528"/>
      <point x="372" y="528" type="curve" smooth="yes"/>
      <point x="476" y="528"/>
      <point x="541" y="474"/>
      <point x="515" y="352" type="curve" smooth="yes"/>
      <point x="440" y="0" type="line"/>
      <point x="408" y="0" type="line"/>
      <point x="483" y="352" type="line" smooth="yes"/>
      <point x="505" y="454"/>
      <point x="455" y="500"/>
      <point x="359" y="500" type="curve" smooth="yes"/>
      <point x="276" y="500"/>
      <point x="209" y="447"/>
      <point x="163" y="391" type="curve"/>
      <point x="80" y="-1" type="line"/>
      <point x="48" y="-1" type="line"/>
    </contour>
  </outline>
</glyph>
<glyph name="o" format="2">
  <advance width="600"/>
  <unicode hex="006F"/>
  <anchor x="408" y="687" name="AccentCenter"/>
  <outline>
    <contour>
      <point x="351" y="500" type="curve" smooth="yes"/>
      <point x="239" y="500"/>
      <point x="138" y="419"/>
      <point x="104" y="259" type="curve" smooth="yes"/>
      <point x="70" y="101"/>
      <point x="138" y="20"/>
      <point x="249" y="20" type="curve" smooth="yes"/>
      <point x="362" y="20"/>
      <point x="462" y="100"/>
      <point x="496" y="259" type="curve" smooth="yes"/>
      <point x="530" y="418"/>
      <point x="461" y="500"/>
    </contour>
    <contour>
      <point x="357" y="528" type="curve" smooth="yes"/>
      <point x="502" y="528"/>
      <point x="563" y="426"/>
      <point x="528" y="259" type="curve" smooth="yes"/>
      <point x="493" y="92"/>
      <point x="385" y="-8"/>
      <point x="243" y="-8" type="curve" smooth="yes"/>
      <point x="103" y="-8"/>
      <point x="37" y="92"/>
      <point x="72" y="259" type="curve" smooth="yes"/>
      <point x="108" y="427"/>
      <point x="212" y="528"/>
    </contour>
  </outline>
</glyph>
<glyph name="p" format="2">
  <advance width="600"/>
  <unicode hex="0070"/>
  <outline>
    <contour>
      <point x="378" y="500" type="curve" smooth="yes"/>
      <point x="297" y="500"/>
      <point x="224" y="442"/>
      <point x="185" y="398" type="curve"/>
      <point x="126" y="123" type="line"/>
      <point x="141" y="57"/>
      <point x="185" y="20"/>
      <point x="276" y="20" type="curve" smooth="yes"/>
      <point x="382" y="20"/>
      <point x="485" y="116"/>
      <point x="516" y="263" type="curve" smooth="yes"/>
      <point x="549" y="419"/>
      <point x="484" y="500"/>
    </contour>
    <contour>
      <point x="179" y="520" type="line"/>
      <point x="202" y="520" type="line"/>
      <point x="193" y="436" type="line"/>
      <point x="238" y="482"/>
      <point x="301" y="528"/>
      <point x="389" y="528" type="curve" smooth="yes"/>
      <point x="508" y="528"/>
      <point x="585" y="439"/>
      <point x="548" y="263" type="curve" smooth="yes"/>
      <point x="513" y="100"/>
      <point x="394" y="-8"/>
      <point x="269" y="-8" type="curve" smooth="yes"/>
      <point x="191" y="-8"/>
      <point x="131" y="18"/>
      <point x="116" y="75" type="curve"/>
      <point x="59" y="-192" type="line"/>
      <point x="27" y="-192" type="line"/>
    </contour>
  </outline>
</glyph>
<glyph name="q" format="2">
  <advance width="600"/>
  <unicode hex="0071"/>
  <outline>
    <contour>
      <point x="367" y="500" type="curve" smooth="yes"/>
      <point x="266" y="500"/>
      <point x="157" y="419"/>
      <point x="124" y="263" type="curve" smooth="yes"/>
      <point x="93" y="116"/>
      <point x="164" y="22"/>
      <point x="265" y="22" type="curve" smooth="yes"/>
      <point x="344" y="22"/>
      <point x="407" y="59"/>
      <point x="454" y="119" type="curve"/>
      <point x="513" y="398" type="line"/>
      <point x="493" y="442"/>
      <point x="455" y="500"/>
    </contour>
    <contour>
      <point x="548" y="520" type="line"/>
      <point x="571" y="520" type="line"/>
      <point x="419" y="-192" type="line"/>
      <point x="387" y="-192" type="line"/>
      <point x="445" y="79" type="line"/>
      <point x="406" y="31"/>
      <point x="344" y="-6"/>
      <point x="255" y="-6" type="curve" smooth="yes"/>
      <point x="139" y="-6"/>
      <point x="57" y="100"/>
      <point x="92" y="263" type="curve" smooth="yes"/>
      <point x="129" y="439"/>
      <point x="260" y="528"/>
      <point x="369" y="528" type="curve" smooth="yes"/>
      <point x="462" y="528"/>
      <point x="491" y="492"/>
      <point x="521" y="436" type="curve"/>
    </contour>
  </outline>
</glyph>
<glyph name="r" format="2">
  <advance width="600"/>
  <unicode hex="0072"/>
  <outline>
    <contour>
      <point x="197" y="520" type="line"/>
      <point x="222" y="402" type="line"/>
      <point x="276" y="464"/>
      <point x="344" y="528"/>
      <point x="457" y="528" type="curve" smooth="yes"/>
      <point x="510" y="528"/>
      <point x="537" y="522"/>
      <point x="581" y="505" type="curve"/>
      <point x="565" y="476" type="line"/>
      <point x="523" y="493"/>
      <point x="494" y="500"/>
      <point x="452" y="500" type="curve" smooth="yes"/>
      <point x="350" y="500"/>
      <point x="289" y="440"/>
      <point x="232" y="367" type="curve"/>
      <point x="154" y="0" type="line"/>
      <point x="122" y="0" type="line"/>
      <point x="200" y="369" type="line"/>
      <point x="163" y="520" type="line"/>
    </contour>
  </outline>
</glyph>
<glyph name="s" format="2">
  <advance width="600"/>
  <unicode hex="0073"/>
  <outline>
    <contour>
      <point x="350" y="528" type="curve" smooth="yes"/>
      <point x="417" y="528"/>
      <point x="488" y="508"/>
      <point x="528" y="486" type="curve"/>
      <point x="523" y="453" type="line"/>
      <point x="480" y="480"/>
      <point x="412" y="500"/>
      <point x="349" y="500" type="curve" smooth="yes"/>
      <point x="255" y="500"/>
      <point x="173" y="457"/>
      <point x="173" y="389" type="curve" smooth="yes"/>
      <point x="173" y="333"/>
      <point x="195" y="312"/>
      <point x="266" y="294" type="curve" smooth="yes"/>
      <point x="381" y="265" type="line" smooth="yes"/>
      <point x="438" y="251"/>
      <point x="490" y="226"/>
      <point x="490" y="144" type="curve" smooth="yes"/>
      <point x="490" y="39"/>
      <point x="381" y="-8"/>
      <point x="261" y="-8" type="curve" smooth="yes"/>
      <point x="190" y="-8"/>
      <point x="117" y="10"/>
      <point x="74" y="46" type="curve"/>
      <point x="82" y="83" type="line"/>
      <point x="119" y="46"/>
      <point x="201" y="20"/>
      <point x="265" y="20" type="curve" smooth="yes"/>
      <point x="355" y="20"/>
      <point x="458" y="55"/>
      <point x="458" y="143" type="curve" smooth="yes"/>
      <point x="458" y="195"/>
      <point x="431" y="222"/>
      <point x="364" y="239" type="curve" smooth="yes"/>
      <point x="250" y="268" type="line" smooth="yes"/>
      <point x="202" y="280"/>
      <point x="143" y="302"/>
      <point x="143" y="387" type="curve" smooth="yes"/>
      <point x="143" y="463"/>
      <point x="223" y="528"/>
    </contour>
  </outline>
</glyph>
<glyph name="t" format="2">
  <advance width="600"/>
  <unicode hex="0074"/>
  <outline>
    <contour>
      <point x="324" y="671" type="line"/>
      <point x="360" y="687" type="line"/>
      <point x="324" y="520" type="line"/>
      <point x="520" y="520" type="line"/>
      <point x="514" y="492" type="line"/>
      <point x="318" y="492" type="line"/>
      <point x="240" y="121" type="line" smooth="yes"/>
      <point x="226" y="55"/>
      <point x="264" y="19"/>
      <point x="321" y="19" type="curve" smooth="yes"/>
      <point x="366" y="19"/>
      <point x="393" y="24"/>
      <point x="442" y="44" type="curve"/>
      <point x="447" y="19" type="line"/>
      <point x="395" y="-1"/>
      <point x="367" y="-8"/>
      <point x="316" y="-8" type="curve" smooth="yes"/>
      <point x="236" y="-8"/>
      <point x="191" y="39"/>
      <point x="208" y="121" type="curve" smooth="yes"/>
      <point x="286" y="492" type="line"/>
      <point x="123" y="492" type="line"/>
      <point x="129" y="520" type="line"/>
      <point x="292" y="520" type="line"/>
    </contour>
  </outline>
</glyph>
<glyph name="u" format="2">
  <advance width="600"/>
  <unicode hex="0075"/>
  <anchor x="392" y="687" name="AccentCenter"/>
  <outline>
    <contour>
      <point x="164" y="520" type="line"/>
      <point x="196" y="520" type="line"/>
      <point x="122" y="172" type="line" smooth="yes"/>
      <point x="100" y="67"/>
      <point x="149" y="20"/>
      <point x="226" y="20" type="curve" smooth="yes"/>
      <point x="300" y="20"/>
      <point x="379" y="71"/>
      <point x="437" y="131" type="curve"/>
      <point x="520" y="520" type="line"/>
      <point x="552" y="520" type="line"/>
      <point x="442" y="0" type="line"/>
      <point x="417" y="0" type="line"/>
      <point x="431" y="94" type="line"/>
      <point x="399" y="56"/>
      <point x="312" y="-8"/>
      <point x="219" y="-8" type="curve" smooth="yes"/>
      <point x="104" y="-8"/>
      <point x="66" y="55"/>
      <point x="90" y="170" type="curve" smooth="yes"/>
    </contour>
  </outline>
</glyph>
<glyph name="v" format="2">
  <advance width="600"/>
  <unicode hex="0076"/>
  <outline>
    <contour>
      <point x="92" y="520" type="line"/>
      <point x="124" y="520" type="line"/>
      <point x="177" y="35" type="line"/>
      <point x="309" y="106"/>
      <point x="439" y="243"/>
      <point x="494" y="520" type="curve"/>
      <point x="528" y="520" type="line"/>
      <point x="463" y="224"/>
      <point x="342" y="86"/>
      <point x="177" y="0" type="curve"/>
      <point x="151" y="0" type="line"/>
    </contour>
  </outline>
</glyph>
<glyph name="w" format="2">
  <advance width="600"/>
  <unicode hex="0077"/>
  <outline>
    <contour>
      <point x="116" y="520" type="line"/>
      <point x="149" y="520" type="line"/>
      <point x="117" y="37" type="line"/>
      <point x="324" y="462" type="line"/>
      <point x="375" y="462" type="line"/>
      <point x="395" y="37" type="line"/>
      <point x="573" y="520" type="line"/>
      <point x="606" y="520" type="line"/>
      <point x="412" y="0" type="line"/>
      <point x="366" y="0" type="line"/>
      <point x="343" y="430" type="line"/>
      <point x="128" y="0" type="line"/>
      <point x="86" y="0" type="line"/>
    </contour>
  </outline>
</glyph>
<glyph name="y" format="2">
  <advance width="600"/>
  <unicode hex="0079"/>
  <anchor x="417" y="687" name="AccentCenter"/>
  <outline>
    <contour>
      <point x="139" y="520" type="line"/>
      <point x="181" y="520" type="line"/>
      <point x="277" y="42" type="line"/>
      <point x="277" y="31" type="line"/>
      <point x="281" y="42" type="line"/>
      <point x="581" y="520" type="line"/>
      <point x="620" y="520" type="line"/>
      <point x="166" y="-192" type="line"/>
      <point x="125" y="-192" type="line"/>
      <point x="253" y="1" type="line"/>
    </contour>
  </outline>
</glyph>
<glyph name="z" format="2">
  <advance width="600"/>
  <unicode hex="007A"/>
  <outline>
    <contour>
      <point x="156" y="520" type="line"/>
      <point x="559" y="520" type="line"/>
      <point x="553" y="492" type="line"/>
      <point x="84" y="28" type="line"/>
      <point x="455" y="28" type="line"/>
      <point x="449" y="0" type="line"/>
      <point x="41" y="0" type="line"/>
      <point x="47" y="28" type="line"/>
      <point x="516" y="492" type="line"/>
      <point x="150" y="492" type="line"/>
    </contour>
  </outline>
</glyph>
<glyph name="braceleft" format="2">
  <advance width="600"/>
  <unicode hex="007B"/>
  <outline>
    <contour>
      <point x="473" y="800" type="curve" smooth="yes"/>
      <point x="534" y="800" type="line"/>
      <point x="534" y="772" type="line"/>
      <point x="463" y="772" type="line" smooth="yes"/>
      <point x="382" y="772"/>
      <point x="328" y="707"/>
      <point x="318" y="648" type="curve"/>
      <point x="318" y="500" type="line"/>
      <point x="289" y="418"/>
      <point x="229" y="379"/>
      <point x="181" y="366" type="curve"/>
      <point x="221" y="345"/>
      <point x="253" y="312"/>
      <point x="266" y="242" type="curve"/>
      <point x="266" y="67" type="line"/>
      <point x="273" y="5"/>
      <point x="331" y="-52"/>
      <point x="422" y="-52" type="curve"/>
      <point x="450" y="-52" type="line"/>
      <point x="450" y="-80" type="line"/>
      <point x="416" y="-80" type="line"/>
      <point x="303" y="-80"/>
      <point x="230" y="5"/>
      <point x="230" y="62" type="curve"/>
      <point x="230" y="245" type="line"/>
      <point x="217" y="317"/>
      <point x="163" y="350"/>
      <point x="128" y="356" type="curve"/>
      <point x="66" y="356" type="line"/>
      <point x="66" y="384" type="line"/>
      <point x="134" y="384" type="line"/>
      <point x="189" y="393"/>
      <point x="256" y="421"/>
      <point x="282" y="497" type="curve"/>
      <point x="285" y="654" type="line"/>
      <point x="307" y="736"/>
      <point x="372" y="800"/>
    </contour>
  </outline>
</glyph>
<glyph name="braceright" format="2">
  <advance width="600"/>
  <unicode hex="007D"/>
  <outline>
    <contour>
      <point x="150" y="800" type="line"/>
      <point x="184" y="800" type="line"/>
      <point x="297" y="800"/>
      <point x="370" y="715"/>
      <point x="370" y="658" type="curve"/>
      <point x="370" y="475" type="line"/>
      <point x="383" y="403"/>
      <point x="437" y="370"/>
      <point x="472" y="364" type="curve"/>
      <point x="534" y="364" type="line"/>
      <point x="534" y="336" type="line"/>
      <point x="466" y="336" type="line"/>
      <point x="411" y="327"/>
      <point x="344" y="299"/>
      <point x="318" y="223" type="curve"/>
      <point x="315" y="66" type="line"/>
      <point x="293" y="-16"/>
      <point x="228" y="-80"/>
      <point x="127" y="-80" type="curve" smooth="yes"/>
      <point x="66" y="-80" type="line"/>
      <point x="66" y="-52" type="line"/>
      <point x="137" y="-52" type="line" smooth="yes"/>
      <point x="218" y="-52"/>
      <point x="272" y="13"/>
      <point x="282" y="72" type="curve"/>
      <point x="282" y="220" type="line"/>
      <point x="311" y="302"/>
      <point x="371" y="341"/>
      <point x="419" y="354" type="curve"/>
      <point x="379" y="375"/>
      <point x="347" y="408"/>
      <point x="334" y="478" type="curve"/>
      <point x="334" y="653" type="line"/>
      <point x="327" y="715"/>
      <point x="269" y="772"/>
      <point x="178" y="772" type="curve"/>
      <point x="150" y="772" type="line"/>
    </contour>
  </outline>
</glyph>
<glyph name="asciitilde" format="2">
  <advance width="600"/>
  <unicode hex="007E"/>
  <outline>
    <contour>
      <point x="48" y="229" type="line"/>
      <point x="81" y="335"/>
      <point x="148" y="384"/>
      <point x="214" y="384" type="curve" smooth="yes"/>
      <point x="317" y="384"/>
      <point x="309" y="254"/>
      <point x="394" y="254" type="curve" smooth="yes"/>
      <point x="457" y="254"/>
      <point x="504" y="306"/>
      <point x="525" y="383" type="curve"/>
      <point x="552" y="380" type="line"/>
      <point x="529" y="294"/>
      <point x="470" y="226"/>
      <point x="387" y="226" type="curve" smooth="yes"/>
      <point x="282" y="226"/>
      <point x="294" y="356"/>
      <point x="208" y="356" type="curve" smooth="yes"/>
      <point x="151" y="356"/>
      <point x="101" y="310"/>
      <point x="77" y="226" type="curve"/>
    </contour>
  </outline>
</glyph>
<glyph name="sterling" format="2">
  <advance width="600"/>
  <unicode hex="00A3"/>
  <outline>
    <contour>
      <point x="425" y="716" type="curve" smooth="yes"/>
      <point x="514" y="716"/>
      <point x="563" y="679"/>
      <point x="599" y="639" type="curve"/>
      <point x="577" y="616" type="line"/>
      <point x="538" y="658"/>
      <point x="500" y="688"/>
      <point x="419" y="688" type="curve" smooth="yes"/>
      <point x="324" y="688"/>
      <point x="230" y="619"/>
      <point x="211" y="531" type="curve" smooth="yes"/>
      <point x="198" y="472"/>
      <point x="214" y="420"/>
      <point x="220" y="359" type="curve"/>
      <point x="396" y="359" type="line"/>
      <point x="390" y="332" type="line"/>
      <point x="223" y="331" type="line"/>
      <point x="225" y="311"/>
      <point x="226" y="275"/>
      <point x="219" y="240" type="curve" smooth="yes"/>
      <point x="196" y="131"/>
      <point x="107" y="58"/>
      <point x="28" y="28" type="curve"/>
      <point x="441" y="28" type="line"/>
      <point x="435" y="0" type="line"/>
      <point x="-12" y="0" type="line"/>
      <point x="-4" y="36" type="line"/>
      <point x="94" y="77"/>
      <point x="166" y="142"/>
      <point x="187" y="240" type="curve" smooth="yes"/>
      <point x="194" y="272"/>
      <point x="194" y="301"/>
      <point x="191" y="331" type="curve"/>
      <point x="29" y="332" type="line"/>
      <point x="35" y="359" type="line"/>
      <point x="190" y="359" type="line"/>
      <point x="186" y="412"/>
      <point x="165" y="465"/>
      <point x="179" y="533" type="curve" smooth="yes"/>
      <point x="199" y="628"/>
      <point x="309" y="716"/>
    </contour>
  </outline>
</glyph>
<glyph name="currency" format="2">
  <advance width="600"/>
  <unicode hex="00A4"/>
  <outline>
    <contour>
      <point x="450" y="140" type="line"/>
      <point x="517" y="56" type="line"/>
      <point x="479" y="25" type="line"/>
      <point x="413" y="108" type="line"/>
    </contour>
    <contour>
      <point x="123" y="108" type="line"/>
      <point x="21" y="25" type="line"/>
      <point x="-3" y="56" type="line"/>
      <point x="98" y="139" type="line"/>
    </contour>
    <contour>
      <point x="151" y="382" type="line"/>
      <point x="85" y="466" type="line"/>
      <point x="121" y="496" type="line"/>
      <point x="187" y="413" type="line"/>
    </contour>
    <contour>
      <point x="476" y="412" type="line"/>
      <point x="579" y="496" type="line"/>
      <point x="603" y="465" type="line"/>
      <point x="501" y="381" type="line"/>
    </contour>
    <contour>
      <point x="343" y="462" type="curve" smooth="yes"/>
      <point x="232" y="462"/>
      <point x="128" y="371"/>
      <point x="104" y="259" type="curve" smooth="yes"/>
      <point x="80" y="147"/>
      <point x="145" y="57"/>
      <point x="257" y="57" type="curve" smooth="yes"/>
      <point x="369" y="57"/>
      <point x="472" y="147"/>
      <point x="496" y="259" type="curve" smooth="yes"/>
      <point x="520" y="371"/>
      <point x="455" y="462"/>
    </contour>
    <contour>
      <point x="251" y="32" type="curve" smooth="yes"/>
      <point x="128" y="32"/>
      <point x="51" y="133"/>
      <point x="78" y="260" type="curve" smooth="yes"/>
      <point x="105" y="387"/>
      <point x="225" y="487"/>
      <point x="348" y="487" type="curve" smooth="yes"/>
      <point x="472" y="487"/>
      <point x="550" y="387"/>
      <point x="523" y="260" type="curve" smooth="yes"/>
      <point x="496" y="133"/>
      <point x="375" y="32"/>
    </contour>
  </outline>
</glyph>
<glyph name="yen" format="2">
  <advance width="600"/>
  <unicode hex="00A5"/>
  <outline>
    <contour>
      <point x="97" y="288" type="line"/>
      <point x="441" y="288" type="line"/>
      <point x="433" y="250" type="line"/>
      <point x="89" y="250" type="line"/>
    </contour>
    <contour>
      <point x="69" y="155" type="line"/>
      <point x="412" y="155" type="line"/>
      <point x="404" y="114" type="line"/>
      <point x="60" y="114" type="line"/>
    </contour>
    <component base="Y"/>
  </outline>
</glyph>
<glyph name="section" format="2">
  <advance width="600"/>
  <unicode hex="00A7"/>
  <outline>
    <contour>
      <point x="384" y="768" type="curve" smooth="yes"/>
      <point x="464" y="768"/>
      <point x="518" y="750"/>
      <point x="570" y="708" type="curve"/>
      <point x="549" y="687" type="line"/>
      <point x="501" y="725"/>
      <point x="460" y="742"/>
      <point x="373" y="742" type="curve" smooth="yes"/>
      <point x="272" y="742"/>
      <point x="178" y="690"/>
      <point x="157" y="591" type="curve" smooth="yes"/>
      <point x="137" y="495"/>
      <point x="165" y="444"/>
      <point x="281" y="419" type="curve" smooth="yes"/>
      <point x="330" y="408" type="line" smooth="yes"/>
      <point x="460" y="381"/>
      <point x="514" y="312"/>
      <point x="492" y="211" type="curve" smooth="yes"/>
      <point x="481" y="160"/>
      <point x="455" y="122"/>
      <point x="409" y="89" type="curve"/>
      <point x="413" y="61"/>
      <point x="414" y="31"/>
      <point x="407" y="-0" type="curve" smooth="yes"/>
      <point x="386" y="-99"/>
      <point x="286" y="-191"/>
      <point x="150" y="-191" type="curve" smooth="yes"/>
      <point x="32" y="-191"/>
      <point x="-24" y="-145"/>
      <point x="-62" y="-89" type="curve"/>
      <point x="-38" y="-68" type="line"/>
      <point x="8" y="-137"/>
      <point x="87" y="-173"/>
      <point x="163" y="-173" type="curve" smooth="yes"/>
      <point x="221" y="-173"/>
      <point x="357" y="-154"/>
      <point x="387" y="-11" type="curve" smooth="yes"/>
      <point x="402" y="59"/>
      <point x="399" y="123"/>
      <point x="235" y="160" type="curve" smooth="yes"/>
      <point x="217" y="164" type="line" smooth="yes"/>
      <point x="159" y="177"/>
      <point x="12" y="212"/>
      <point x="46" y="372" type="curve" smooth="yes"/>
      <point x="57" y="425"/>
      <point x="79" y="456"/>
      <point x="130" y="493" type="curve"/>
      <point x="118" y="521"/>
      <point x="120" y="563"/>
      <point x="126" y="592" type="curve" smooth="yes"/>
      <point x="148" y="696"/>
      <point x="248" y="768"/>
    </contour>
    <contour>
      <point x="136" y="462" type="curve"/>
      <point x="104" y="436"/>
      <point x="85" y="399"/>
      <point x="77" y="362" type="curve" smooth="yes"/>
      <point x="57" y="270"/>
      <point x="91" y="223"/>
      <point x="226" y="193" type="curve" smooth="yes"/>
      <point x="252" y="187" type="line"/>
      <point x="318" y="174"/>
      <point x="370" y="148"/>
      <point x="405" y="116" type="curve"/>
      <point x="435" y="144"/>
      <point x="454" y="178"/>
      <point x="463" y="221" type="curve" smooth="yes"/>
      <point x="477" y="288"/>
      <point x="473" y="349"/>
      <point x="304" y="385" type="curve"/>
      <point x="288" y="388" type="line" smooth="yes"/>
      <point x="221" y="399"/>
      <point x="172" y="427"/>
    </contour>
  </outline>
</glyph>
<glyph name="copyright" format="2">
  <advance width="600"/>
  <unicode hex="00A9"/>
  <outline>
    <contour>
      <point x="335" y="516" type="curve" smooth="yes"/>
      <point x="380" y="516"/>
      <point x="405" y="509"/>
      <point x="437" y="474" type="curve"/>
      <point x="403" y="436" type="line"/>
      <point x="381" y="462"/>
      <point x="362" y="469"/>
      <point x="327" y="469" type="curve" smooth="yes"/>
      <point x="268" y="469"/>
      <point x="233" y="432"/>
      <point x="217" y="355" type="curve" smooth="yes"/>
      <point x="201" y="278"/>
      <point x="220" y="244"/>
      <point x="278" y="244" type="curve" smooth="yes"/>
      <point x="318" y="244"/>
      <point x="341" y="251"/>
      <point x="371" y="278" type="curve"/>
      <point x="389" y="241" type="line"/>
      <point x="351" y="209"/>
      <point x="314" y="197"/>
      <point x="265" y="197" type="curve" smooth="yes"/>
      <point x="180" y="197"/>
      <point x="138" y="256"/>
      <point x="159" y="355" type="curve" smooth="yes"/>
      <point x="181" y="457"/>
      <point x="246" y="516"/>
    </contour>
    <contour>
      <point x="516" y="357" type="curve" smooth="yes"/>
      <point x="491" y="238"/>
      <point x="373" y="141"/>
      <point x="254" y="141" type="curve" smooth="yes"/>
      <point x="135" y="141"/>
      <point x="59" y="238"/>
      <point x="84" y="357" type="curve" smooth="yes"/>
      <point x="109" y="476"/>
      <point x="227" y="573"/>
      <point x="346" y="573" type="curve" smooth="yes"/>
      <point x="465" y="573"/>
      <point x="541" y="476"/>
    </contour>
    <contour>
      <point x="565" y="357" type="curve" smooth="yes"/>
      <point x="596" y="503"/>
      <point x="502" y="622"/>
      <point x="356" y="622" type="curve" smooth="yes"/>
      <point x="210" y="622"/>
      <point x="66" y="503"/>
      <point x="35" y="357" type="curve" smooth="yes"/>
      <point x="4" y="211"/>
      <point x="98" y="92"/>
      <point x="244" y="92" type="curve" smooth="yes"/>
      <point x="390" y="92"/>
      <point x="534" y="211"/>
    </contour>
  </outline>
</glyph>
<glyph name="mu" format="2">
  <advance width="600"/>
  <unicode hex="00B5"/>
  <outline>
    <contour>
      <point x="168" y="518" type="line"/>
      <point x="200" y="518" type="line"/>
      <point x="112" y="102" type="line"/>
      <point x="130" y="73"/>
      <point x="151" y="20"/>
      <point x="247" y="20" type="curve" smooth="yes"/>
      <point x="321" y="20"/>
      <point x="418" y="65"/>
      <point x="452" y="226" type="curve" smooth="yes"/>
      <point x="514" y="518" type="line"/>
      <point x="546" y="518" type="line"/>
      <point x="451" y="69" type="line" smooth="yes"/>
      <point x="445" y="42"/>
      <point x="455" y="20"/>
      <point x="480" y="20" type="curve" smooth="yes"/>
      <point x="505" y="20" type="line"/>
      <point x="501" y="-1" type="line"/>
      <point x="499" y="-3"/>
      <point x="482" y="-8"/>
      <point x="467" y="-8" type="curve" smooth="yes"/>
      <point x="416" y="-8"/>
      <point x="406" y="29"/>
      <point x="419" y="88" type="curve"/>
      <point x="380" y="25"/>
      <point x="318" y="-8"/>
      <point x="240" y="-8" type="curve" smooth="yes"/>
      <point x="177" y="-8"/>
      <point x="134" y="0"/>
      <point x="98" y="65" type="curve"/>
      <point x="101" y="55"/>
      <point x="100" y="45"/>
      <point x="97" y="33" type="curve" smooth="yes"/>
      <point x="50" y="-190" type="line"/>
      <point x="18" y="-190" type="line"/>
    </contour>
  </outline>
</glyph>
<glyph name="paragraph" format="2">
  <advance width="600"/>
  <unicode hex="00B6"/>
  <outline>
    <contour>
      <point x="295" y="0" type="line"/>
      <point x="445" y="708" type="line"/>
      <point x="589" y="708" type="line"/>
      <point x="576" y="644" type="line"/>
      <point x="508" y="644" type="line"/>
      <point x="385" y="65" type="line"/>
      <point x="453" y="65" type="line"/>
      <point x="439" y="0" type="line"/>
    </contour>
    <contour>
      <point x="78" y="544" type="curve" smooth="yes"/>
      <point x="98" y="640"/>
      <point x="186" y="708"/>
      <point x="287" y="708" type="curve" smooth="yes"/>
      <point x="377" y="708" type="line"/>
      <point x="227" y="0" type="line"/>
      <point x="151" y="0" type="line"/>
      <point x="229" y="367" type="line"/>
      <point x="215" y="367" type="line" smooth="yes"/>
      <point x="109" y="367"/>
      <point x="55" y="437"/>
    </contour>
  </outline>
</glyph>
<glyph name="AE" format="2">
  <advance width="600"/>
  <unicode hex="00C6"/>
  <outline>
    <contour>
      <point x="463" y="708" type="line"/>
      <point x="891" y="708" type="line"/>
      <point x="888" y="693" type="line"/>
      <point x="481" y="693" type="line"/>
      <point x="420" y="402" type="line"/>
      <point x="748" y="402" type="line"/>
      <point x="743" y="381" type="line"/>
      <point x="415" y="381" type="line"/>
      <point x="337" y="16" type="line"/>
      <point x="744" y="16" type="line"/>
      <point x="740" y="0" type="line"/>
      <point x="328" y="0" type="line"/>
      <point x="370" y="199" type="line"/>
      <point x="131" y="199" type="line"/>
      <point x="-5" y="0" type="line"/>
      <point x="-15" y="0" type="line"/>
    </contour>
    <contour>
      <point x="474" y="687" type="line"/>
      <point x="151" y="214" type="line"/>
      <point x="373" y="214" type="line"/>
    </contour>
  </outline>
</glyph>
<glyph name="Thorn" format="2">
  <advance width="600"/>
  <unicode hex="00DE"/>
  <outline>
    <contour>
      <point x="174" y="708" type="line"/>
      <point x="187" y="708" type="line"/>
      <point x="155" y="557" type="line"/>
      <point x="311" y="557" type="line" smooth="yes"/>
      <point x="401" y="557"/>
      <point x="481" y="480"/>
      <point x="454" y="354" type="curve" smooth="yes"/>
      <point x="429" y="236"/>
      <point x="307" y="161"/>
      <point x="220" y="161" type="curve" smooth="yes"/>
      <point x="71" y="161" type="line"/>
      <point x="37" y="0" type="line"/>
      <point x="24" y="0" type="line"/>
    </contour>
    <contour>
      <point x="151" y="538" type="line"/>
      <point x="75" y="182" type="line"/>
      <point x="227" y="182" type="line" smooth="yes"/>
      <point x="337" y="182"/>
      <point x="417" y="251"/>
      <point x="439" y="355" type="curve" smooth="yes"/>
      <point x="462" y="465"/>
      <point x="421" y="538"/>
      <point x="313" y="538" type="curve" smooth="yes"/>
    </contour>
  </outline>
</glyph>
<glyph name="ae" format="2">
  <advance width="600"/>
  <unicode hex="00E6"/>
  <outline>
    <contour>
      <point x="317" y="528" type="curve" smooth="yes"/>
      <point x="396" y="528"/>
      <point x="446" y="497"/>
      <point x="452" y="448" type="curve"/>
      <point x="511" y="504"/>
      <point x="567" y="528"/>
      <point x="653" y="528" type="curve" smooth="yes"/>
      <point x="764" y="528"/>
      <point x="807" y="430"/>
      <point x="780" y="305" type="curve" smooth="yes"/>
      <point x="773" y="272"/>
      <point x="769" y="256"/>
      <point x="766" y="250" type="curve"/>
      <point x="405" y="250" type="line"/>
      <point x="397" y="214"/>
      <point x="339" y="15"/>
      <point x="538" y="15" type="curve" smooth="yes"/>
      <point x="604" y="15"/>
      <point x="646" y="24"/>
      <point x="728" y="90" type="curve"/>
      <point x="740" y="75" type="line"/>
      <point x="664" y="13"/>
      <point x="589" y="-8"/>
      <point x="545" y="-8" type="curve" smooth="yes"/>
      <point x="456" y="-8"/>
      <point x="405" y="25"/>
      <point x="375" y="94" type="curve"/>
      <point x="332" y="53"/>
      <point x="251" y="-8"/>
      <point x="153" y="-8" type="curve" smooth="yes"/>
      <point x="49" y="-8"/>
      <point x="6" y="43"/>
      <point x="28" y="145" type="curve" smooth="yes"/>
      <point x="49" y="246"/>
      <point x="131" y="302"/>
      <point x="277" y="302" type="curve" smooth="yes"/>
      <point x="402" y="302" type="line"/>
      <point x="413" y="352" type="line" smooth="yes"/>
      <point x="434" y="450"/>
      <point x="402" y="499"/>
      <point x="315" y="499" type="curve" smooth="yes"/>
      <point x="256" y="499"/>
      <point x="208" y="480"/>
      <point x="144" y="435" type="curve"/>
      <point x="118" y="446" type="line"/>
      <point x="200" y="505"/>
      <point x="254" y="528"/>
    </contour>
    <contour>
      <point x="395" y="269" type="line"/>
      <point x="259" y="269" type="line" smooth="yes"/>
      <point x="124" y="269"/>
      <point x="64" y="228"/>
      <point x="45" y="140" type="curve" smooth="yes"/>
      <point x="28" y="59"/>
      <point x="67" y="19"/>
      <point x="165" y="19" type="curve" smooth="yes"/>
      <point x="232" y="19"/>
      <point x="321" y="70"/>
      <point x="362" y="113" type="curve"/>
    </contour>
    <contour>
      <point x="633" y="503" type="curve" smooth="yes"/>
      <point x="540" y="503"/>
      <point x="449" y="458"/>
      <point x="413" y="286" type="curve"/>
      <point x="764" y="286" type="line"/>
      <point x="772" y="320" type="line" smooth="yes"/>
      <point x="797" y="438"/>
      <point x="748" y="503"/>
    </contour>
  </outline>
</glyph>
<glyph name="eth" format="2">
  <advance width="600"/>
  <unicode hex="00F0"/>
  <outline>
    <contour>
      <point x="306" y="716" type="curve"/>
      <point x="350" y="716" type="line"/>
      <point x="363" y="708"/>
      <point x="398" y="678"/>
      <point x="412" y="659" type="curve"/>
      <point x="488" y="701" type="line"/>
      <point x="481" y="670" type="line"/>
      <point x="428" y="641" type="line"/>
      <point x="497" y="552"/>
      <point x="541" y="429"/>
      <point x="504" y="254" type="curve" smooth="yes"/>
      <point x="470" y="94"/>
      <point x="354" y="-8"/>
      <point x="220" y="-8" type="curve" smooth="yes"/>
      <point x="71" y="-8"/>
      <point x="14" y="94"/>
      <point x="49" y="258" type="curve" smooth="yes"/>
      <point x="83" y="416"/>
      <point x="209" y="528"/>
      <point x="333" y="528" type="curve" smooth="yes"/>
      <point x="392" y="528"/>
      <point x="446" y="509"/>
      <point x="479" y="463" type="curve"/>
      <point x="458" y="541"/>
      <point x="438" y="580"/>
      <point x="401" y="626" type="curve"/>
      <point x="278" y="557" type="line"/>
      <point x="285" y="588" type="line"/>
      <point x="386" y="645" type="line"/>
      <point x="360" y="679"/>
      <point x="328" y="702"/>
    </contour>
    <contour>
      <point x="328" y="500" type="curve" smooth="yes"/>
      <point x="220" y="500"/>
      <point x="110" y="394"/>
      <point x="81" y="258" type="curve" smooth="yes"/>
      <point x="51" y="115"/>
      <point x="90" y="20"/>
      <point x="226" y="20" type="curve" smooth="yes"/>
      <point x="344" y="20"/>
      <point x="442" y="114"/>
      <point x="472" y="253" type="curve" smooth="yes"/>
      <point x="486" y="318"/>
      <point x="490" y="367"/>
      <point x="482" y="425" type="curve"/>
      <point x="444" y="482"/>
      <point x="383" y="500"/>
    </contour>
  </outline>
</glyph>
<glyph name="thorn" format="2">
  <advance width="600"/>
  <unicode hex="00FE"/>
  <outline>
    <contour>
      <point x="185" y="708" type="line"/>
      <point x="201" y="708" type="line"/>
      <point x="137" y="411" type="line"/>
      <point x="223" y="489"/>
      <point x="295" y="528"/>
      <point x="355" y="528" type="curve" smooth="yes"/>
      <point x="489" y="528"/>
      <point x="530" y="444"/>
      <point x="491" y="261" type="curve" smooth="yes"/>
      <point x="456" y="94"/>
      <point x="360" y="-8"/>
      <point x="235" y="-8" type="curve"/>
      <point x="252" y="-8"/>
      <point x="121" y="-14"/>
      <point x="70" y="94" type="curve"/>
      <point x="9" y="-193" type="line"/>
      <point x="-6" y="-193" type="line"/>
    </contour>
    <contour>
      <point x="340" y="510" type="curve" smooth="yes"/>
      <point x="259" y="510"/>
      <point x="196" y="475"/>
      <point x="134" y="397" type="curve"/>
      <point x="79" y="134" type="line"/>
      <point x="110" y="46"/>
      <point x="153" y="13"/>
      <point x="237" y="13" type="curve" smooth="yes"/>
      <point x="354" y="13"/>
      <point x="446" y="110"/>
      <point x="479" y="265" type="curve" smooth="yes"/>
      <point x="515" y="436"/>
      <point x="473" y="510"/>
    </contour>
  </outline>
</glyph>
<glyph name="dotlessi" format="2">
  <advance width="600"/>
  <unicode hex="0131"/>
  <anchor x="381" y="687" name="AccentCenter"/>
  <outline>
    <contour>
      <point x="132" y="520" type="line"/>
      <point x="360" y="520" type="line"/>
      <point x="256" y="28" type="line"/>
      <point x="457" y="28" type="line"/>
      <point x="451" y="0" type="line"/>
      <point x="218" y="0" type="line"/>
      <point x="322" y="492" type="line"/>
      <point x="126" y="492" type="line"/>
    </contour>
  </outline>
</glyph>
<glyph name="gravecomb" format="2">
  <unicode hex="0300"/>
  <anchor x="-4" y="830" name="_AccentCenter"/>
  <outline>
    <contour>
      <point x="-40" y="939" type="line"/>
      <point x="83" y="784" type="line"/>
      <point x="56" y="761" type="line"/>
      <point x="-67" y="916" type="line"/>
    </contour>
  </outline>
</glyph>
<glyph name="acutecomb" format="2">
  <advance width="0"/>
  <unicode hex="0301"/>
  <anchor x="27" y="830" name="_AccentCenter"/>
  <outline>
    <contour>
      <point x="78" y="939" type="line"/>
      <point x="95" y="916" type="line"/>
      <point x="-94" y="761" type="line"/>
      <point x="-111" y="784" type="line"/>
    </contour>
  </outline>
</glyph>
<glyph name="uni0302" format="2">
  <unicode hex="0302"/>
  <anchor x="-3" y="830" name="_AccentCenter"/>
  <outline>
    <contour>
      <point x="6" y="931" type="line"/>
      <point x="30" y="931" type="line"/>
      <point x="127" y="784" type="line"/>
      <point x="97" y="761" type="line"/>
      <point x="11" y="899" type="line"/>
      <point x="-128" y="761" type="line"/>
      <point x="-149" y="784" type="line"/>
    </contour>
  </outline>
</glyph>
<glyph name="tildecomb" format="2">
  <advance width="0"/>
  <unicode hex="0303"/>
  <anchor x="-0" y="852" name="_AccentCenter"/>
  <outline>
    <contour>
      <point x="-67" y="902" type="curve" smooth="yes"/>
      <point x="0" y="902"/>
      <point x="8" y="830"/>
      <point x="58" y="830" type="curve" smooth="yes"/>
      <point x="95" y="830"/>
      <point x="112" y="855"/>
      <point x="122" y="898" type="curve"/>
      <point x="154" y="898" type="line"/>
      <point x="140" y="833"/>
      <point x="102" y="802"/>
      <point x="52" y="802" type="curve" smooth="yes"/>
      <point x="-22" y="802"/>
      <point x="-24" y="874"/>
      <point x="-73" y="874" type="curve" smooth="yes"/>
      <point x="-117" y="874"/>
      <point x="-136" y="845"/>
      <point x="-144" y="806" type="curve"/>
      <point x="-176" y="806" type="line"/>
      <point x="-165" y="860"/>
      <point x="-134" y="902"/>
    </contour>
  </outline>
</glyph>
<glyph name="uni0304" format="2">
  <advance width="0"/>
  <unicode hex="0304"/>
  <anchor x="-0" y="833" name="AccentCenter"/>
  <outline>
    <contour>
      <point x="-106" y="841" type="line"/>
      <point x="110" y="841" type="line"/>
      <point x="106" y="825" type="line"/>
      <point x="-110" y="825" type="line"/>
    </contour>
  </outline>
</glyph>
<glyph name="uni0308" format="2">
  <unicode hex="0308"/>
  <anchor x="-4" y="844" name="_AccentCenter"/>
  <outline>
    <contour>
      <point x="-96" y="899" type="curve" smooth="yes"/>
      <point x="-75" y="899"/>
      <point x="-61" y="882"/>
      <point x="-66" y="860" type="curve" smooth="yes"/>
      <point x="-70" y="839"/>
      <point x="-91" y="822"/>
      <point x="-112" y="822" type="curve" smooth="yes"/>
      <point x="-134" y="822"/>
      <point x="-147" y="840"/>
      <point x="-143" y="860" type="curve" smooth="yes"/>
      <point x="-139" y="881"/>
      <point x="-118" y="899"/>
    </contour>
    <contour>
      <point x="114" y="899" type="curve" smooth="yes"/>
      <point x="135" y="899"/>
      <point x="149" y="882"/>
      <point x="144" y="860" type="curve" smooth="yes"/>
      <point x="140" y="839"/>
      <point x="119" y="822"/>
      <point x="98" y="822" type="curve" smooth="yes"/>
      <point x="76" y="822"/>
      <point x="63" y="840"/>
      <point x="67" y="860" type="curve" smooth="yes"/>
      <point x="71" y="881"/>
      <point x="92" y="899"/>
    </contour>
  </outline>
</glyph>
<glyph name="uni0327" format="2">
  <advance width="0"/>
  <unicode hex="0327"/>
  <outline>
    <contour>
      <point x="7" y="-5" type="line"/>
      <point x="39" y="-5" type="line"/>
      <point x="11" y="-137" type="line"/>
      <point x="1" y="-186"/>
      <point x="-40" y="-224"/>
      <point x="-91" y="-224" type="curve" smooth="yes"/>
      <point x="-102" y="-224"/>
      <point x="-119" y="-222"/>
      <point x="-124" y="-220" type="curve"/>
      <point x="-117" y="-196" type="line"/>
      <point x="-86" y="-196" type="line" smooth="yes"/>
      <point x="-49" y="-196"/>
      <point x="-31" y="-182"/>
      <point x="-21" y="-137" type="curve" smooth="yes"/>
    </contour>
  </outline>
</glyph>
<glyph name="Euro" format="2">
  <advance width="600"/>
  <unicode hex="20AC"/>
  <outline>
    <contour>
      <point x="402" y="716" type="curve" smooth="yes"/>
      <point x="466" y="716"/>
      <point x="527" y="694"/>
      <point x="571" y="650" type="curve"/>
      <point x="552" y="627" type="line"/>
      <point x="512" y="669"/>
      <point x="457" y="688"/>
      <point x="396" y="688" type="curve" smooth="yes"/>
      <point x="214" y="688"/>
      <point x="91" y="508"/>
      <point x="91" y="269" type="curve" smooth="yes"/>
      <point x="91" y="115"/>
      <point x="160" y="20"/>
      <point x="285" y="20" type="curve" smooth="yes"/>
      <point x="360" y="20"/>
      <point x="415" y="45"/>
      <point x="466" y="74" type="curve"/>
      <point x="477" y="48" type="line"/>
      <point x="431" y="23"/>
      <point x="380" y="-8"/>
      <point x="285" y="-8" type="curve" smooth="yes"/>
      <point x="152" y="-8"/>
      <point x="59" y="81"/>
      <point x="59" y="269" type="curve" smooth="yes"/>
      <point x="59" y="531"/>
      <point x="193" y="716"/>
    </contour>
    <contour>
      <point x="49" y="450" type="line"/>
      <point x="494" y="450" type="line"/>
      <point x="478" y="422" type="line"/>
      <point x="43" y="422" type="line"/>
    </contour>
    <contour>
      <point x="15" y="291" type="line"/>
      <point x="401" y="291" type="line"/>
      <point x="385" y="263" type="line"/>
      <point x="9" y="263" type="line"/>
    </contour>
  </outline>
</glyph>
<glyph name="a.ss01" format="2">
  <advance width="600"/>
  <outline>
    <contour>
      <point x="365" y="528" type="curve" smooth="yes"/>
      <point x="478" y="528"/>
      <point x="536" y="474"/>
      <point x="509" y="345" type="curve" smooth="yes"/>
      <point x="436" y="0" type="line"/>
      <point x="404" y="0" type="line"/>
      <point x="425" y="101" type="line"/>
      <point x="386" y="48"/>
      <point x="312" y="-8"/>
      <point x="219" y="-8" type="curve" smooth="yes"/>
      <point x="108" y="-8"/>
      <point x="74" y="48"/>
      <point x="74" y="121" type="curve" smooth="yes"/>
      <point x="74" y="248"/>
      <point x="187" y="286"/>
      <point x="295" y="286" type="curve" smooth="yes"/>
      <point x="465" y="286" type="line"/>
      <point x="480" y="359" type="line" smooth="yes"/>
      <point x="500" y="453"/>
      <point x="453" y="500"/>
      <point x="359" y="500" type="curve" smooth="yes"/>
      <point x="299" y="500"/>
      <point x="242" y="482"/>
      <point x="191" y="463" type="curve"/>
      <point x="187" y="489" type="line"/>
      <point x="239" y="509"/>
      <point x="289" y="528"/>
    </contour>
    <contour>
      <point x="459" y="258" type="line"/>
      <point x="290" y="258" type="line" smooth="yes"/>
      <point x="187" y="258"/>
      <point x="106" y="223"/>
      <point x="106" y="121" type="curve" smooth="yes"/>
      <point x="106" y="64"/>
      <point x="133" y="20"/>
      <point x="226" y="20" type="curve" smooth="yes"/>
      <point x="314" y="20"/>
      <point x="390" y="78"/>
      <point x="434" y="141" type="curve"/>
    </contour>
  </outline>
</glyph>
<glyph name="equal_equal.liga" format="2">
  <advance width="1200"/>
  <outline>
    <contour>
      <point x="244" y="398" type="line"/>
      <point x="1004" y="398" type="line"/>
      <point x="998" y="370" type="line"/>
      <point x="238" y="370" type="line"/>
    </contour>
    <contour>
      <point x="202" y="204" type="line"/>
      <point x="962" y="203" type="line"/>
      <point x="956" y="175" type="line"/>
      <point x="197" y="176" type="line"/>
    </contour>
  </outline>
</glyph>
<glyph name="r.alt" format="2">
  <advance width="600"/>
  <outline>
    <contour>
      <point x="81" y="520" type="line"/>
      <point x="272" y="520" type="line"/>
      <point x="237" y="348" type="line"/>
      <point x="261" y="429"/>
      <point x="373" y="528"/>
      <point x="500" y="528" type="curve" smooth="yes"/>
      <point x="534" y="528"/>
      <point x="553" y="525"/>
      <point x="586" y="515" type="curve"/>
      <point x="574" y="487" type="line"/>
      <point x="545" y="496"/>
      <point x="523" y="500"/>
      <point x="493" y="500" type="curve" smooth="yes"/>
      <point x="378" y="500"/>
      <point x="262" y="401"/>
      <point x="225" y="289" type="curve"/>
      <point x="164" y="0" type="line"/>
      <point x="132" y="0" type="line"/>
      <point x="236" y="492" type="line"/>
      <point x="81" y="492" type="line"/>
    </contour>
  </outline>
</glyph>
<glyph name="r.ss01" format="2">
  <advance width="600"/>
  <outline>
    <contour>
      <point x="88" y="520" type="line"/>
      <point x="273" y="520" type="line"/>
      <point x="246" y="389" type="line"/>
      <point x="281" y="444"/>
      <point x="350" y="528"/>
      <point x="480" y="528" type="curve" smooth="yes"/>
      <point x="513" y="528"/>
      <point x="548" y="518"/>
      <point x="560" y="512" type="curve"/>
      <point x="545" y="487" type="line"/>
      <point x="533" y="492"/>
      <point x="503" y="501"/>
      <point x="472" y="501" type="curve" smooth="yes"/>
      <point x="348" y="501"/>
      <point x="280" y="416"/>
      <point x="236" y="344" type="curve"/>
      <point x="163" y="0" type="line"/>
      <point x="131" y="0" type="line"/>
      <point x="235" y="492" type="line"/>
      <point x="87" y="492" type="line"/>
    </contour>
  </outline>
</glyph>
